<svg xmlns="http://www.w3.org/2000/svg" width="32" height="32" viewBox="0 0 32 32">
    <circle fill="#2F2425" cx="16" cy="16" r="15"/>
    <g>
        <path fill="#FBF2E8" d="M16,24.16c-.46,0-.96.65-.96,1.58v1.34h1.93v-1.34c0-.93-.51-1.58-.96-1.58Z"/>
        <path fill="#FBF2E8" d="M20.22,31.42l-.42-9.32h-7.72l-.42,9.29c1.39.39,2.84.62,4.35.62s2.87-.21,4.22-.58ZM13.94,25.74c0-1.5.91-2.68,2.06-2.68s2.06,1.18,2.06,2.68v2.44h-4.12v-2.44Z"/>
        <path fill="#FBF2E8" d="M16,0C7.18,0,0,7.18,0,16c0,6.91,4.41,12.8,10.56,15.03l.41-9.12h-1.31c-.23,0-.43-.16-.47-.38-.04-.22.07-.43.28-.52,1-.42,1.97-1.09,2.9-1.98-.94-.81-1.47-1.93-1.47-3.12,0-1.57,1.66-3.42,3-4.9.36-.41.7-.78.96-1.1l.09-1.31c-.33-.28-.52-.69-.52-1.11,0-.49.26-.95.69-1.23l.05-.65c-.18-.2-.29-.45-.29-.72,0-.32.15-.63.4-.83l.3-2.5c.03-.25.09-.7.48-.7s.44.46.47.7l.3,2.5c.26.21.4.51.4.83,0,.27-.1.52-.29.72l.05.65c.43.28.69.74.69,1.23,0,.43-.19.83-.52,1.11l.09,1.31c.26.32.6.7.96,1.1,1.34,1.49,3,3.34,3,4.9,0,1.22-.56,2.36-1.54,3.18.91.86,1.87,1.51,2.85,1.92.21.09.32.3.28.52-.05.22-.24.38-.47.38h-1.45l.42,9.17c6.22-2.19,10.7-8.12,10.7-15.08C32,7.18,24.82,0,16,0Z"/>
    </g>
</svg>
