<?xml version="1.0" encoding="UTF-8"?>
<svg id="Layer_1" data-name="Layer 1" xmlns="http://www.w3.org/2000/svg" viewBox="0 0 48.36 81.17">
  <defs>
    <style>
      .cls-1 {
        fill: #faf2e8;
      }
    </style>
  </defs>
  <path class="cls-1" d="M24.18,2C11.95,2,2,11.64,2,23.49v55.68h44.36V23.49c0-11.85-9.95-21.49-22.18-21.49ZM13.72,71.94c-.34.16-.71.25-1.11.26-.95-.03-1.81-.54-2.25-1.36-.19-.36-.56-.58-.96-.58h0c-.4,0-.77.22-.96.58-.46.84-1.36,1.36-2.35,1.36-.13,0-.27,0-.4-.03-.65-.1-1.23-.42-1.64-.89v-2.83c.54.26,1.13.42,1.75.45,1.32.08,2.6-.4,3.53-1.26.86.79,2.01,1.27,3.22,1.27.02,0,.04,0,.06,0,.02,0,.04,0,.06,0h.03c.1,0,.21-.01.31-.02,0,0,.02,0,.02,0,.29-.02.57-.08.84-.15l-.14,3.18ZM13.97,66.48c-.4.24-.86.38-1.35.39-.95-.03-1.81-.54-2.25-1.36-.19-.36-.56-.58-.97-.58s-.77.22-.96.58c-.48.89-1.48,1.43-2.51,1.36-.74-.04-1.41-.38-1.87-.91v-2.82c.23.11.48.21.73.28.43.12.86.18,1.31.18,1.23,0,2.38-.47,3.24-1.27.86.79,2.01,1.27,3.22,1.27.02,0,.04,0,.06,0,.02,0,.04,0,.06,0h.03c.1,0,.2-.01.31-.02,0,0,.02,0,.03,0,.37-.03.74-.1,1.09-.21l-.14,3.12ZM4.05,77.12v-3.34c.42.2.87.35,1.34.42.23.03.46.05.69.05,1.23,0,2.38-.47,3.24-1.27.86.79,2.01,1.27,3.22,1.27.02,0,.04,0,.06,0,.02,0,.04,0,.06,0h.03c.1,0,.21-.01.31-.02,0,0,.02,0,.02,0,.2-.01.4-.04.6-.08l-.13,2.98H4.05ZM15.54,76.99l1.23-27.07h14.39l.65,14.4c-1.53,1.41-2.96,3.18-4.1,5.43-1.55,3.04-2.12,5.17-2.39,7.25h-9.78ZM44.31,77.12h-2.84c.01-.96.14-2.32.41-3.42.26-1.07.7-2.17,1.26-3.18.34-.63.74-1.22,1.18-1.78v8.39ZM44.31,65.71c-1.19,1.12-2.19,2.41-2.97,3.82-.64,1.17-1.14,2.44-1.45,3.68-.35,1.41-.45,2.96-.46,3.91h-4.86c.19-1.76.72-3.99,2.04-6.24,2.22-3.78,5.58-5.7,7.7-6.6v1.43ZM44.31,62.09c-2.26.83-6.65,2.97-9.47,7.76-1.29,2.2-2.08,4.69-2.33,7.28h-5.15c.25-1.83.77-3.73,2.16-6.45,3.76-7.39,10.76-9.04,14.13-9.83.24-.06.46-.11.66-.16v1.4ZM44.31,58.57c-.26.08-.66.17-1.12.28-2.07.49-5.83,1.38-9.4,3.88l-.6-13.15h2.7c.43,0,.79-.29.88-.71.08-.41-.13-.81-.52-.97-1.82-.77-3.61-1.98-5.31-3.59,1.83-1.52,2.87-3.65,2.87-5.92,0-2.92-3.1-6.36-5.59-9.13-.67-.75-1.31-1.46-1.79-2.06l-.17-2.44c.62-.53.98-1.28.98-2.07,0-.92-.48-1.77-1.28-2.3l-.08-1.22c.34-.37.53-.85.53-1.34,0-.61-.28-1.17-.75-1.55l-.56-4.66c-.06-.46-.16-1.31-.88-1.31-.73,0-.83.85-.88,1.31l-.56,4.66c-.48.39-.75.95-.75,1.55,0,.5.19.97.53,1.34l-.08,1.22c-.8.53-1.28,1.37-1.28,2.3,0,.79.36,1.54.98,2.07l-.17,2.44c-.48.6-1.12,1.31-1.79,2.06-2.49,2.77-5.59,6.22-5.59,9.13,0,2.21.99,4.3,2.74,5.81-1.73,1.66-3.55,2.9-5.41,3.69-.39.17-.6.57-.52.97.09.42.45.71.88.71h2.44l-.52,11.41c-.45.35-1.01.55-1.6.56-.95-.03-1.81-.54-2.25-1.36-.19-.36-.56-.58-.97-.58s-.77.22-.96.58c-.46.84-1.36,1.36-2.35,1.36-.25,0-.51-.04-.75-.1-.51-.15-.96-.44-1.29-.82V23.49C4.05,12.77,13.08,4.05,24.18,4.05s20.13,8.72,20.13,19.44v35.08Z"/>
  <path class="cls-1" d="M27.93,56.71c0-2.8-1.69-4.99-3.84-4.99s-3.84,2.19-3.84,4.99v4.54h7.68v-4.54ZM25.89,59.2h-3.59v-2.49c0-1.74.95-2.95,1.79-2.95s1.79,1.21,1.79,2.95v2.49Z"/>
</svg>