<?xml version="1.0" encoding="UTF-8"?>
<svg id="Layer_1" data-name="Layer 1" xmlns="http://www.w3.org/2000/svg" viewBox="0 0 1371.67 999.99">
  <defs>
    <style>
      .cls-1 {
        fill: none;
        stroke: #000;
        stroke-miterlimit: 10;
      }
    </style>
  </defs>
  <path d="M943,6h0v-2l-1-1h0s-1-1-1-1h-1s-1-1-1-1h-5s-1-1-1-1h-3l-1,1h0s-1,0-1,0h-6l-1,1h0s-1,0-1,0l-1,1h0s-1,0-1,0l-1,1h0s-1,0-1,0l-1,1h0s-1,0-1,0l-1,1h0s-1,0-1,0h-1l-1,1h0s-1,0-1,0l-1,1h0s-1,0-1,0l-1,1h0s-1,0-1,0h-1l-1,1h0s-1,1-1,1h0s-1,0-1,0l-1,1h0s-1,1-1,1h0s-1,0-1,0l-1,1h0s-1,1-1,1h0s-1,1-1,1h0s-1,1-1,1h0s-1,1-1,1h0s-1,0-1,0h-1l-1,1h0s-1,1-1,1h0s-1,1-1,1h0s-1,1-1,1h0s-1,1-1,1h0s-1,1-1,1h0s-1,1-1,1h0s-1,1-1,1h0s-1,1-1,1h0s-1,1-1,1v1h0s-1,1-1,1h0s-1,1-1,1h0s-1,0-1,0l-1,1h0s-1,1-1,1h0s-1,1-1,1h0s-1,1-1,1h0s-1,1-1,1h0s-1,1-1,1h0s-1,1-1,1h0s-1,0-1,0l-1,1v1h0s-1,1-1,1h0s-1,1-1,1h0s-1,0-1,0l-1,1v1h0s-1,1-1,1v2h0s-1,1-1,1v1h0s-1,0-1,0l-1,1h0s-1,1-1,1h0s-1,1-1,1h0s-1,1-1,1h0s-1,1-1,1h0s-1,1-1,1h0s-1,1-1,1h0s-1,1-1,1h0s-1,1-1,1h0s-1,1-1,1h0s-1,1-1,1v2h0s-1,1-1,1v1h0s-1,1-1,1v1h0s-1,1-1,1h0s-1,1-1,1h0s-1,1-1,1h0s-1,1-1,1h0s-1,1-1,1h0s-1,1-1,1v1h0s-1,1-1,1v1h0s-1,0-1,0l-1,1v2h0s-1,1-1,1h0s-1,1-1,1h0s-1,1-1,1h0s-1,1-1,1v1h0s-1,1-1,1v1h0s-1,0-1,0l-1,1h0s-1,1-1,1h0s-1,1-1,1v1h0s-1,1-1,1v3h0s-1,0-1,0l-1,1h0s-1,1-1,1v1h0s-1,1-1,1h0s-1,1-1,1v1h0s-1,1-1,1v1h0s-1,1-1,1h0s-1,1-1,1v1h0s-1,1-1,1v2h0s-1,1-1,1v1h0s-1,0-1,0l-1,1v3h0s-1,1-1,1h0s-1,1-1,1h0s-1,1-1,1v3h0s-1,1-1,1h0s-1,1-1,1h0s-1,1-1,1h0s-1,1-1,1h0s-1,1-1,1h0s-1,1-1,1h0s-1,1-1,1h0s-1,1-1,1v1h0s-1,1-1,1v2h0s-1,1-1,1h0s-1,1-1,1h0s-1,1-1,1v1h0s-1,1-1,1v2h0s-1,1-1,1v1h0s-1,1-1,1v1h0s-1,1-1,1h0s-1,1-1,1h0s-1,1-1,1v1h0s-1,1-1,1h0s-1,1-1,1v1h0s-1,1-1,1v1h0s-1,1-1,1h0s-1,1-1,1h0s-1,1-1,1v3h0s-1,1-1,1h0s-1,1-1,1v1h0s-1,1-1,1v1h0s-1,1-1,1v1h0s-1,1-1,1v1h0s-1,1-1,1v1h0s-1,1-1,1h0s-1,1-1,1v2h0s-1,1-1,1v1h0s-1,1-1,1h0s-1,1-1,1v1h0s-1,1-1,1v1h0s-1,1-1,1h0s-1,1-1,1v1h0s-1,1-1,1v1h0s-1,1-1,1v1h0s-1,1-1,1h0s-1,1-1,1v1h0s-1,1-1,1v1h0s-1,1-1,1v2h0s-1,1-1,1v1h0s-1,1-1,1v1h0s-1,1-1,1v1h0s-1,1-1,1h0s-1,1-1,1v3h0s-1,1-1,1v1h0s-1,1-1,1v1h0s-1,1-1,1v2h0s-1,1-1,1h0s-1,1-1,1h0s-1,1-1,1h0s-1,1-1,1v6h0s-1,1-1,1h0s-1,1-1,1v1h0s-1,1-1,1h0s-1,1-1,1v1h0s-1,1-1,1v1h0s-1,1-1,1v2h0s-1,1-1,1v2h0s-1,1-1,1h0s-1,1-1,1h0s-1,1-1,1v1h0s-1,1-1,1v1h0s-1,1-1,1v2h0s-1,1-1,1v1h0s-1,1-1,1v1h0s-1,1-1,1v1h0s-1,1-1,1v1h0s-1,1-1,1v1h0s-1,1-1,1v2h0s-1,1-1,1v1l1,1h0v1h0s-1,1-1,1v1h0s-1,1-1,1v1h0s-1,1-1,1v1h0s-1,1-1,1h0s-1,1-1,1h0s-1,1-1,1v1h0s-1,1-1,1v1l1,1h0v1h0s-1,1-1,1h0s-1,1-1,1h0s-1,1-1,1h0s-1,1-1,1v1h0s-1,1-1,1v1h0s-1,1-1,1v3h0s-1,1-1,1v1h0s-1,1-1,1v1h0s-1,1-1,1v3h0s-1,1-1,1v1h0s-1,1-1,1v1h0s-1,1-1,1v2h0s-1,1-1,1v1h0s-1,1-1,1v1h0s-1,1-1,1h0s-1,1-1,1h0s-1,1-1,1v4h0s-1,1-1,1v1h0s-1,1-1,1v1h0s-1,1-1,1v1h0s-1,1-1,1h0s-1,1-1,1v4h0s-1,1-1,1h0s-1,0-1,0l-1,1h0s-1,1-1,1h0s-1,1-1,1v1h0s-1,1-1,1h0s-1,1-1,1v3h0s-1,1-1,1h0s-1,1-1,1h0s-1,1-1,1v2h0s-1,0-1,0h-1l-1,1h0s-1,1-1,1h0s-1,1-1,1v1h0s-1,1-1,1l1,1h0s1,1,1,1h0s0,0,0,0l-1,1v1h0s-1,1-1,1h0s-1,0-1,0l-1,1h0s-1,1-1,1v1h0s-1,0-1,0l-1,1h0s-1,1-1,1h0s-1,1-1,1v3h0s-1,1-1,1v1h0s-1,1-1,1h0s-1,0-1,0h-3l-1,1h0s-1,1-1,1v2h0s-1,1-1,1h0s-1,1-1,1h0s-1,1-1,1h0s-1,1-1,1h0s-1,1-1,1h0s-1,1-1,1h0s-1,1-1,1h0s-1,1-1,1h0s-1,1-1,1h0s-1,0-1,0l-1,1h0s-1,1-1,1h0s-1,1-1,1h0s-1,1-1,1v1h0s-1,1-1,1v1h0s-1,0-1,0l-1,1v3h0s-1,1-1,1v1h0s-1,1-1,1v1h0s-1,1-1,1h0s-1,1-1,1v2h0s-1,1-1,1h0s-1,1-1,1v1h0s-1,0-1,0l-1,1h0s-1,1-1,1h0s-1,0-1,0l-1,1h0s-1,1-1,1h0s-1,1-1,1v4h0s-1,1-1,1h0s-1,0-1,0l-1,1h0s-1,1-1,1h0s-1,1-1,1h0s-1,1-1,1h0s-1,1-1,1h0s-1,1-1,1h0s-1,1-1,1h0s-1,1-1,1v2l1,1h0s0,0,0,0l-1,1v1h0s-1,0-1,0h-3l-1,1v2h0s-1,0-1,0l-1,1h0s-1,0-1,0l-1,1h0s-1,1-1,1h0s-1,1-1,1h0s-1,1-1,1h0s-1,1-1,1h0s-1,1-1,1v1h0s-1,1-1,1v1h0s-1,1-1,1h0s-1,1-1,1h0s-1,1-1,1h0s-1,1-1,1h0s-1,0-1,0l-1,1v2h0s-1,1-1,1h0s-1,1-1,1v3h0s-1,1-1,1h0s-1,0-1,0l-1,1h0s-1,1-1,1h0s-1,1-1,1v1h0s-1,1-1,1v2h0s-1,1-1,1h0s-1,1-1,1v1h0s-1,1-1,1l1,1h1s0,0,0,0l-1,1h0s-1,1-1,1h0s-1,1-1,1h0s-1,0-1,0l-1,1h0s-1,1-1,1v1h0s-1,1-1,1v2h0s-1,1-1,1v1h0s-1,0-1,0l-1,1v1h0s-1,0-1,0h0s-1-1-1-1l-1,1v1h0s-1,1-1,1h0s-1,1-1,1h0s-1,1-1,1h0s-1,1-1,1h0s-1,0-1,0l-1,1v1h0s-1,1-1,1v1l1,1h0s1,1,1,1h1l1-1h0s0,0,0,0l1,1h2l1-1h0s1-1,1-1h0s1,0,1,0h0s0,0,0,0l-1,1h0s-1,0-1,0l-1,1h0s-1,1-1,1h0s0,0,0,0l-1-1h0s-1-1-1-1l-1,1h0s-1,1-1,1h0s0,0,0,0l-1-1h-4l-1,1h0s-1,0-1,0l-1,1h0s-1,1-1,1v1h0s-1,1-1,1h0s-1,1-1,1h0s-1,1-1,1v6h0s-1,1-1,1h0s-1,0-1,0l-1,1h0s-1,1-1,1h0s-1,0-1,0h-1l-1,1h0s-1,1-1,1v1h0s-1,1-1,1v2h0s-1,1-1,1v1h0s-1,1-1,1v1h0s-1,0-1,0l-1,1h0s-1,1-1,1h0s-1,1-1,1v1h0s-1,1-1,1h0s-1,1-1,1v1h0s-1,0-1,0h-1l-1,1h0s-1,1-1,1h0s-1,1-1,1h0s-1,1-1,1h0s-1,1-1,1h0s-1,1-1,1h0s-1,1-1,1h0s-1,1-1,1h0s-1,1-1,1v2l1,1h0s1,1,1,1h2v1h0s-1,1-1,1h0s0,0,0,0l-1-1h0s-1-1-1-1h0s-1-1-1-1h-1l-1,1h0s-1,1-1,1h0s-1,1-1,1h0s-1,0-1,0l-1,1h0s-1,1-1,1h0s-1,1-1,1v1h0s-1,1-1,1l1,1h0v1l1,1h0s1,1,1,1h0v1h0s-1,1-1,1h0s-1,1-1,1h0s-1,1-1,1h0s-1,1-1,1h0s-1,1-1,1h0s-1,1-1,1h0s-1,1-1,1h0s-1,0-1,0l-1,1h0s-1,0-1,0h-2l-1,1h0s-1,0-1,0l-1,1h0s-1,1-1,1h0s-1,1-1,1v1h0s-1,1-1,1h0s-1,1-1,1h0s-1,1-1,1h0s-1,1-1,1v1h0s-1,1-1,1h0s-1,1-1,1v1l1,1h1v1l1,1h0s0,0,0,0l-1,1h0s-1,1-1,1h0s-1,1-1,1h0s-1,1-1,1h0s-1,1-1,1h0s-1,1-1,1h0s-1,1-1,1h0s-1,0-1,0l-1,1h0s-1,0-1,0l-1,1h0s-1,1-1,1h0s-1,1-1,1h0s-1,0-1,0l-1,1v1h0s-1,1-1,1v3l1,1h0v1h0s0,0,0,0l-1-1h0v-1l-1-1h-1l-1,1h0s-1,1-1,1h0s-1,1-1,1v1l1,1h0s0,0,0,0l-1,1h0s-1,0-1,0l-1,1h0s-1,1-1,1v1h0s-1,1-1,1h0s0,0,0,0l-1-1h0s-1-1-1-1l-1,1h0s-1,0-1,0l-1,1h0s-1,1-1,1h0s-1,1-1,1h0s-1,1-1,1h0s-1,1-1,1h0s-1,1-1,1v1h0s-1,1-1,1h0s-1,0-1,0l-1,1h0s-1,0-1,0l-1,1v4h0s-1,1-1,1h0s-1,1-1,1h0s-1,0-1,0h-1l-1,1h0s-1,1-1,1h0s-1,1-1,1h0s-1,1-1,1v4h0s-1,1-1,1v1h0s-1,0-1,0h-1l-1,1h0s-1,1-1,1l1,1h0s1,1,1,1h0v2l1,1h0v1l1,1,1-1h0s1-1,1-1v-1h0s0,0,0,0l1,1h0s1,1,1,1h1s0,0,0,0h-2l-1,1v1h0s-1,1-1,1v3h0s-1,0-1,0h-1s0,0,0,0l1-1h0s1-1,1-1v-2l-1-1h-2v-4l-1-1h0s-1-1-1-1l-1,1h0s-1,0-1,0l-1,1h0s-1,0-1,0l-1,1h0s-1,1-1,1h0s-1,1-1,1h0s-1,1-1,1h0s-1,1-1,1h0s-1,1-1,1v1h0s-1,0-1,0l-1,1v1l1,1,1-1h0s0,0,0,0v1h0s-1,1-1,1h0s-1,1-1,1h0s-1,1-1,1v5h0s-1,1-1,1v2h0s-1,0-1,0h0s-1-1-1-1h0s-1-1-1-1h-3l-1,1v1h0s-1,1-1,1v2h0s-1,1-1,1v1l1,1h1s1,1,1,1h0s0,0,0,0l-1,1v1h0s-1,1-1,1h0s-1,0-1,0h0s-1-1-1-1l-1,1v2l1,1h0v1l1,1h0v1h0s-1,0-1,0h-1s-1-1-1-1h-2l-1,1h0s-1,0-1,0h-2l-1,1h0s-1,1-1,1v1h0s-1,1-1,1h0s-1,1-1,1h0s-1,0-1,0l-1,1h0s-1,1-1,1h0s-1,1-1,1h0s-1,1-1,1h0s-1,1-1,1h0s-1,1-1,1h0s-1,0-1,0l-1,1h0s-1,1-1,1h0s-1,1-1,1v2h0s-1,1-1,1h0s-1,1-1,1v1l1,1h0s0,0,0,0l-1,1h0s-1,1-1,1h0s-1,0-1,0l-1,1h0s-1,0-1,0l-1,1h0s-1,1-1,1h0s-1,0-1,0l-1,1h0s-1,1-1,1h0s-1,1-1,1h0s-1,1-1,1h0s-1,1-1,1h0s-1,1-1,1h0s-1,1-1,1h0s-1,1-1,1h0s-1,1-1,1h0s-1,1-1,1h0s-1,1-1,1h0s-1,1-1,1v3l1,1h0v1h0s-1,0-1,0l-1,1h0s-1,1-1,1h0s-1,0-1,0h-1l-1,1h0s-1,0-1,0h-1l-1,1h0s-1,0-1,0h-1l-1,1v1h0s-1,1-1,1h0s-1,1-1,1v1h0s-1,1-1,1h0s-1,1-1,1v4h0s-1,0-1,0l-1,1h0s-1,0-1,0l-1,1h0s-1,1-1,1h0s-1,1-1,1h0s-1,1-1,1h0s-1,1-1,1h0s-1,0-1,0l-1,1h0s-1,0-1,0l-1,1h0s-1,1-1,1h0s-1,1-1,1h0s-1,1-1,1v1h0s-1,1-1,1h0s-1,0-1,0l-1,1v1h0s-1,1-1,1v1h0s-1,1-1,1h0s-1,1-1,1v1h0s-1,1-1,1h0s-1,0-1,0l-1,1h0s-1,1-1,1h0s-1,1-1,1h0s-1,1-1,1h0s-1,1-1,1h0s-1,1-1,1h0s-1,1-1,1v2l1,1h0s1,1,1,1h0v1l1,1h0s1,1,1,1h0v1h0s-1,0-1,0h-1l-1,1h0s-1,0-1,0h0s-1-1-1-1h-4l-1,1h0s-1,1-1,1h0s-1,1-1,1h0s-1,1-1,1v1h0s-1,1-1,1h0s-1,0-1,0h-1l-1,1h0s-1,0-1,0l-1,1h0s-1,1-1,1h0s-1,1-1,1h0s-1,1-1,1h0s-1,1-1,1v1h0s-1,1-1,1v2l1,1h0s1,1,1,1h6v1h0s-1,0-1,0h-3l-1,1h0s-1,1-1,1h0s-1,0-1,0h0s-1-1-1-1h0s-1-1-1-1h0s-1-1-1-1h-2l-1,1h0s-1,1-1,1h0s-1,1-1,1h0s-1,1-1,1h0s-1,0-1,0l-1,1h0s-1,1-1,1h0s-1,1-1,1h0s-1,1-1,1v2l1,1h0v1l1,1h2l1-1h0s1,0,1,0l1-1h0s1-1,1-1h0s0,0,0,0l1,1h4s1,1,1,1h1l1-1h0s1,0,1,0h0s1,1,1,1h4l1-1h0s1-1,1-1h0s1-1,1-1v-1h0s1-1,1-1h0s1-1,1-1h0s1-1,1-1h0s1-1,1-1h0s1,0,1,0l1-1h0s1-1,1-1h0s1-1,1-1v-1h0s1-1,1-1h0s1,0,1,0l1-1v-1h0s1,0,1,0l1-1v-1h0s1-1,1-1v-2h0s1-1,1-1h0s1-1,1-1h0s1-1,1-1h0s1-1,1-1h0s1-1,1-1h0s1-1,1-1h0s1-1,1-1h0s1-1,1-1h0s1-1,1-1h0s1-1,1-1h0s1-1,1-1h0s1-1,1-1v-2h0s1,0,1,0h1l1-1h0s1-1,1-1h0s1-1,1-1h0s1-1,1-1h0s1-1,1-1h0s1-1,1-1h0s1-1,1-1h0s1-1,1-1h0s1-1,1-1h0s1-1,1-1h0s1-1,1-1h0s1-1,1-1v-1h0s1-1,1-1h0s1,0,1,0l1-1h0s1-1,1-1h0s1-1,1-1v-1h0s1-1,1-1h0s1-1,1-1v-1h0s1-1,1-1v-2h0s1,0,1,0h1l1-1h0s1-1,1-1h0s1-1,1-1v-1h0s1-1,1-1h0s1-1,1-1v-2h0s1-1,1-1v-1h0s1-1,1-1v-4h0s1,0,1,0h0v2l1,1h0s1,1,1,1h2l1-1h0s1-1,1-1v-2h0s1-1,1-1h0s1-1,1-1h0s1-1,1-1h0s1-1,1-1h0s1-1,1-1h0s1,0,1,0l1-1h0s1-1,1-1h0s1-1,1-1v-1h0s1-1,1-1h0s1-1,1-1h0s1-1,1-1h0s1-1,1-1h0s1-1,1-1h0s1-1,1-1v-1h0s1-1,1-1v-1h0s1-1,1-1v-3l-1-1h-1l-1,1h0s-1,1-1,1h0s-1,0-1,0l-1,1h0s-1,1-1,1v1h0s-1,1-1,1h0s0,0,0,0v-1h0s1-1,1-1h0s1-1,1-1h0s1-1,1-1v-1h0s1-1,1-1h0s1-1,1-1h0s1-1,1-1h0s1,0,1,0l1-1v-1h0s1-1,1-1h0s1,0,1,0l1-1h0s1-1,1-1h0s1-1,1-1v-2h0s1-1,1-1h0s1-1,1-1h0s1-1,1-1h0s1-1,1-1h0s1-1,1-1h0s0,0,0,0v2h0s-1,1-1,1h0s-1,0-1,0h-1l-1,1v1l1,1h0v1h0s-1,1-1,1h0s-1,0-1,0l-1,1h0s-1,1-1,1h0s-1,1-1,1h0s-1,1-1,1v1h0s-1,1-1,1l1,1h2l1-1h0s1,0,1,0l1-1v-1h0s1-1,1-1h0s1-1,1-1h0s1-1,1-1h0s1-1,1-1h0s1-1,1-1h0s1-1,1-1v-1h0s1-1,1-1v-1h0s1-1,1-1h0s1,0,1,0l1-1h0s1-1,1-1h0s1-1,1-1v-1h0s1,0,1,0l1-1h0s1-1,1-1h0s1-1,1-1h0s1-1,1-1v-1h0s1-1,1-1h0s1-1,1-1h0s1-1,1-1h0s1-1,1-1v-2l-1-1h-2l-1,1h0s-1,1-1,1h0s0,0,0,0l-1-1h-1s0,0,0,0h1l1-1h0s1,0,1,0l1-1h0s1,0,1,0h0s1,1,1,1h0s1,1,1,1h2l1-1h0s1-1,1-1v-1h0s1-1,1-1h0s1-1,1-1v-1h0s1-1,1-1h0s1-1,1-1h0s1-1,1-1h0s1-1,1-1h0s1-1,1-1h0s1-1,1-1v-1h0s1-1,1-1h0s1-1,1-1h0s1-1,1-1v-1h0s1-1,1-1h0s1-1,1-1v-1h0s1-1,1-1h0s1,0,1,0l1-1h0s1-1,1-1h0s1-1,1-1h0s1-1,1-1h0s1-1,1-1h0s1-1,1-1v-1h0s1-1,1-1h0s1-1,1-1h0s1-1,1-1h0s1-1,1-1v-1h0s1,0,1,0l1-1h0s1-1,1-1h0s1-1,1-1h0s1-1,1-1v-1h0s1-1,1-1h0s1-1,1-1h0s1-1,1-1h0s1-1,1-1h0s1-1,1-1v-1h0s1-1,1-1h0s1-1,1-1h0s1-1,1-1h0s1-1,1-1h0s1-1,1-1h0s1-1,1-1h0s1-1,1-1h0s1-1,1-1h0s1-1,1-1h0s1-1,1-1h0s1-1,1-1h0s1-1,1-1v-1h0s1-1,1-1v-3l-1-1h0s-1-1-1-1l-1,1h0s-1,0-1,0h-1v-1h0s1-1,1-1h0s1,0,1,0h3s1,1,1,1h2l1-1h0s1-1,1-1v-2h0s1,0,1,0l1-1h0s1-1,1-1h0s1-1,1-1h0s1-1,1-1h0s1-1,1-1v-1h0s1,0,1,0l1-1h0s1-1,1-1h0s1-1,1-1v-3h0s1-1,1-1h0s1,0,1,0l1-1h0s1-1,1-1h0s1-1,1-1h0s1-1,1-1h0s1-1,1-1h0s1-1,1-1h0s1-1,1-1h0s1-1,1-1h0s1-1,1-1h0s1-1,1-1h0s1-1,1-1h0s1-1,1-1v-2h0s1-1,1-1h0s1-1,1-1v-1l-1-1h0s-1-1-1-1h0v-4h0s1-1,1-1h0s1,0,1,0h2l1-1h0s0,0,0,0l1,1h2l1-1h0s1,0,1,0l1-1v-1h0s1-1,1-1h0s1-1,1-1h0s1-1,1-1h0s1-1,1-1h0s1-1,1-1v-1h0s1-1,1-1v-1h0s1-1,1-1h0s1-1,1-1h0s1-1,1-1v-1h0s1-1,1-1h0s1,0,1,0l1-1h0s1-1,1-1h0s1-1,1-1v-1h0s1-1,1-1h0s1-1,1-1v-1h0s1-1,1-1v-2l-1-1h-3l-1,1h0s0,0,0,0v-1h0s1,0,1,0h3s1,1,1,1h1l1-1h0s1-1,1-1h0s1-1,1-1h0s1-1,1-1h0s1-1,1-1h0s1-1,1-1v-1h0s1-1,1-1h0s1-1,1-1v-1h0s1-1,1-1h0s1-1,1-1h0s1-1,1-1h0s1-1,1-1v-1h0s1-1,1-1l-1-1h0v-2l-1-1h0v-2h0s1,0,1,0h5l1-1h0s1-1,1-1h0s1,0,1,0l1-1h0s1-1,1-1v-1h0s1-1,1-1v-1h0s1-1,1-1h0s1-1,1-1h0s1-1,1-1h0s1-1,1-1h0s1-1,1-1h0s1-1,1-1h0s1-1,1-1h0s1-1,1-1h0s1-1,1-1v-1h0s1-1,1-1h0s1-1,1-1v-1h0s1-1,1-1v-1h0s1-1,1-1h0s1-1,1-1h0s1-1,1-1h0s1-1,1-1h0s1-1,1-1h0s1-1,1-1v-1h0s1-1,1-1h0s1-1,1-1h0s1-1,1-1v-1h0s1-1,1-1h0s1-1,1-1h0s1-1,1-1h0s1-1,1-1h0s1-1,1-1h0s1-1,1-1v-1h0s1-1,1-1h0s1-1,1-1h0s1-1,1-1h0s1-1,1-1v-1h0s1-1,1-1v-1h0s1,0,1,0l1-1h0s1-1,1-1h0s1-1,1-1v-1h0s1-1,1-1v-1h0s1-1,1-1h0s1-1,1-1h0s1-1,1-1h0s1-1,1-1v-1h0s1-1,1-1h0s1-1,1-1h0s1-1,1-1h0s1-1,1-1h0s1-1,1-1v-2l-1-1h-4v-3h0s1-1,1-1h0s1,0,1,0h3s1,1,1,1h3l1-1h0s1-1,1-1h0s1-1,1-1v-1h0s1-1,1-1v-1l-1-1h0s-1-1-1-1h-1s0,0,0,0h1l1-1h0s0,0,0,0l1,1h2l1-1h0s1-1,1-1h0s1-1,1-1v-1h0s1-1,1-1h0s1-1,1-1h0s1-1,1-1h0s1-1,1-1h0s1-1,1-1h0s1-1,1-1h0s1-1,1-1v-1h0s1-1,1-1h0s1-1,1-1v-2h0s1-1,1-1h0s1-1,1-1h0s1,0,1,0l1-1v-1h0s1-1,1-1v-1h0s1,0,1,0l1-1v-1h0s1-1,1-1h0s1-1,1-1v-1h0s1-1,1-1h0s1-1,1-1v-1h0s1-1,1-1h0s1,0,1,0l1-1h0s1-1,1-1h0s1-1,1-1v-1h0s1-1,1-1h0s1-1,1-1h0s1-1,1-1v-1h0s1-1,1-1h0s1-1,1-1v-1h0s1-1,1-1v-1l-1-1h0v-1l-1-1h0s0,0,0,0h5s1,1,1,1h0v5h0s-1,1-1,1v2h0s-1,1-1,1v1h0s-1,1-1,1v1h0s-1,1-1,1h0s-1,1-1,1h0s-1,1-1,1v2h0s-1,1-1,1h0s-1,1-1,1v1h0s-1,1-1,1v2h0s-1,1-1,1v1h0s-1,1-1,1h0s-1,1-1,1v2h0s-1,1-1,1v4h0s-1,1-1,1v2h0s-1,1-1,1v1h0s-1,1-1,1v1h0s-1,1-1,1v1h0s-1,1-1,1v2h0s-1,1-1,1v1h0s-1,1-1,1v6h0s-1,1-1,1h0s-1,1-1,1h0s-1,1-1,1v8h0s-1,1-1,1v1h0s-1,1-1,1v1h0s-1,1-1,1h0s-1,1-1,1v11h0s-1,1-1,1v1h0s-1,1-1,1h0s-1,1-1,1v11h0s-1,1-1,1v11l1,1h0v8l1,1h0s1,1,1,1h0s1,1,1,1h0s1,1,1,1h0v3l1,1h0s1,1,1,1h0v1l1,1h0v1l1,1h0v1l1,1h1s1,1,1,1h0s1,1,1,1h1s1,1,1,1h0s1,1,1,1h1s1,1,1,1h0s1,1,1,1h1s1,1,1,1h1v1l1,1h1s1,1,1,1h2s1,1,1,1h2l1-1h0s1,0,1,0h0s1,1,1,1h7l1-1h0s1,0,1,0h3s1,1,1,1h7l1-1h0s1,0,1,0h2l1-1h0s1-1,1-1h0s1-1,1-1h0s1-1,1-1h0s1,0,1,0h1l1-1h0s1,0,1,0l1-1h0s1,0,1,0l1-1h0s1,0,1,0l1-1h0s1,0,1,0h1l1-1h0s1-1,1-1h0s1,0,1,0l1-1h0s1,0,1,0l1-1h0s1-1,1-1h0s1-1,1-1h0s1-1,1-1h0s1-1,1-1h0s1-1,1-1h0s1-1,1-1v-1l-1-1h0v-1l-1-1h-2s-1-1-1-1h-8l-1,1h0s-1,1-1,1v1h0s-1,1-1,1h0s-1,0-1,0l-1,1h0s-1,0-1,0h-5l-1,1h0s-1,1-1,1h0s-1,1-1,1h0s-1,0-1,0h-15s-1-1-1-1h-2s-1-1-1-1h0s-1-1-1-1h0s-1-1-1-1h-3s-1-1-1-1h-1s-1-1-1-1h0s-1-1-1-1h0s-1-1-1-1h0s-1-1-1-1h0s-1-1-1-1h0s-1-1-1-1h0s-1-1-1-1h0s-1-1-1-1h0s-1-1-1-1h0s-1-1-1-1h0s-1-1-1-1h0v-1l-1-1h0v-3l-1-1h0v-2l-1-1h0v-7h0s1-1,1-1v-7h0s1-1,1-1h0s1-1,1-1v-3l-1-1h0v-2h0s1-1,1-1v-1h0s1-1,1-1v-2h0s1-1,1-1v-1h0s1-1,1-1v-1l-1-1h0v-3h0s1-1,1-1h0s1-1,1-1v-4h0s1-1,1-1v-1h0s1-1,1-1v-2h0s1-1,1-1v-1h0s1-1,1-1v-1h0s1-1,1-1v-1h0s1-1,1-1v-3h0s1-1,1-1h0s1-1,1-1v-5h0s1-1,1-1v-1h0s1-1,1-1v-6h0s1-1,1-1v-2h0s1-1,1-1h0s1-1,1-1v-1h0s1-1,1-1v-1h0s1-1,1-1h0s1-1,1-1v-1h0s1-1,1-1v-1h0s1-1,1-1v-1h0s1-1,1-1v-6h0s1-1,1-1v-2h0s1-1,1-1h0s1-1,1-1h0s1-1,1-1v-1h0s1-1,1-1h0s1-1,1-1v-2h0s1-1,1-1v-2h0s1-1,1-1v-2h0s1-1,1-1v-1h0s1-1,1-1v-1h0s1-1,1-1v-2h0s1-1,1-1v-4h0s1-1,1-1v-1h0s1-1,1-1h0s1-1,1-1h0s1-1,1-1v-1h0s1-1,1-1v-2h0s1-1,1-1v-1h0s1-1,1-1v-3h0s1-1,1-1v-1h0s1-1,1-1v-2h0s1-1,1-1h0s1-1,1-1v-2h0s1-1,1-1v-2h0s1-1,1-1v-1h0s1-1,1-1v-1h0s1-1,1-1h0s1,0,1,0l1-1h0s1-1,1-1h0s1-1,1-1v-1h0s1-1,1-1v-1h0s1-1,1-1h0s1,0,1,0l1-1h0s1-1,1-1h0s1-1,1-1v-1h0s1-1,1-1v-1h0s1-1,1-1h0s1-1,1-1v-1h0s1-1,1-1h0s1-1,1-1v-1h0s1-1,1-1v-1h0s1-1,1-1h0s1-1,1-1v-1h0s1-1,1-1v-1h0s1-1,1-1h0s1-1,1-1h0s1-1,1-1h0s1-1,1-1h0s1-1,1-1h0s1-1,1-1h0s1-1,1-1h0s1-1,1-1h0s1-1,1-1v-1h0s1-1,1-1v-1h0s1-1,1-1h0s1-1,1-1v-1h0s1-1,1-1h0s1-1,1-1v-1h0s1-1,1-1h0s1-1,1-1v-1h0s1-1,1-1v-1h0s1-1,1-1h0s1-1,1-1v-1h0s1-1,1-1h0s1-1,1-1h0s1,0,1,0l1-1v-1h0s1-1,1-1h0s1-1,1-1h0s1,0,1,0l1-1h0s1-1,1-1v-1h0s1-1,1-1v-1h0s1,0,1,0l1-1h0s1-1,1-1h0s1-1,1-1h0s1-1,1-1v-3h0s1-1,1-1v-2h0s1-1,1-1h0s1,0,1,0h1l1-1h0s1-1,1-1v-1h0s1-1,1-1h0s1-1,1-1h0s1-1,1-1h0s1-1,1-1v-2h0s1-1,1-1v-1h0s1-1,1-1h0s1-1,1-1h0s1-1,1-1h0s1-1,1-1h0s1-1,1-1v-4l-1-1h0v-1h0s1,0,1,0h3l1-1h0s1,0,1,0l1-1h0s1-1,1-1v-2h0s1-1,1-1v-1h0s1-1,1-1h0s1,0,1,0l1-1h0s1-1,1-1h0s1-1,1-1h0s1-1,1-1v-2l-1-1h0s-1-1-1-1h0s-1-1-1-1h-1s0,0,0,0l1-1h0s1,0,1,0h6l1-1v-3h0s1-1,1-1h0s1,0,1,0l1-1h0s1-1,1-1h0s1-1,1-1h0s1-1,1-1h0s1-1,1-1h0s1-1,1-1h0s1-1,1-1v-4h0s1,0,1,0h1l1-1h0s1-1,1-1v-2h0s1-1,1-1v-1h0s1,0,1,0l1-1h0s1-1,1-1v-4l-1-1h0v-2h0s0,0,0,0v1l1,1h2l1-1h0s1-1,1-1h0s1-1,1-1h0s1-1,1-1h0s1-1,1-1v-1h0s1-1,1-1v-1h0s1-1,1-1h0s1-1,1-1h0s1-1,1-1h0s1-1,1-1h0s1-1,1-1v-1h0s1-1,1-1h0s1-1,1-1h0s1-1,1-1h0s1-1,1-1h0s1-1,1-1v-2h0s1-1,1-1v-1h0s1-1,1-1h0s1,0,1,0l1-1h0s1-1,1-1h0s1-1,1-1h0s1-1,1-1h0s1-1,1-1h0s1-1,1-1v-6h0s1-1,1-1h0s1-1,1-1h0s1,0,1,0l1-1h0s1-1,1-1h0s1-1,1-1v-1h0s1-1,1-1v-1h0s1-1,1-1v-1h0s1-1,1-1v-1h0s1-1,1-1v-1h0s1-1,1-1h0s1-1,1-1v-2h0s1-1,1-1h0s1-1,1-1h0s1-1,1-1h0s1,0,1,0l1-1h0s1-1,1-1v-1h0s1-1,1-1h0s1-1,1-1h0s1-1,1-1v-1h0s1-1,1-1h0s1-1,1-1v-1h0s1-1,1-1h0s1-1,1-1h0s1-1,1-1v-1h0s1-1,1-1h0s1-1,1-1v-1h0s1-1,1-1v-1h0s1-1,1-1v-1h0s1-1,1-1h0s1-1,1-1v-1h0s1-1,1-1h0s1-1,1-1v-1h0s1-1,1-1v-1h0s1-1,1-1h0s1-1,1-1h0s1-1,1-1v-1h0s1-1,1-1h0s1-1,1-1h0s1-1,1-1h0s1-1,1-1h0s1-1,1-1v-1h0s1-1,1-1v-1h0s1-1,1-1h0s1-1,1-1h0s1-1,1-1v-1h0s1-1,1-1v-1h0s1-1,1-1v-1h0s1-1,1-1v-1h0s1-1,1-1v-1h0s1-1,1-1h0s1-1,1-1h0s1-1,1-1h0s1-1,1-1v-1h0s1-1,1-1h0s1-1,1-1h0s1-1,1-1v-1h0s1-1,1-1v-1h0s1-1,1-1v-1h0s1-1,1-1h0s1-1,1-1h0s1-1,1-1v-1h0s1-1,1-1v-1h0s1-1,1-1v-1h0s1-1,1-1h0s1-1,1-1h0s1-1,1-1v-1h0s1-1,1-1v-1h0s1-1,1-1v-1h0s1-1,1-1v-1h0s1-1,1-1v-1h0s1-1,1-1v-1h0s1-1,1-1v-1h0s1-1,1-1v-1h0s1-1,1-1v-1h0s1-1,1-1h0s1-1,1-1v-1h0s1-1,1-1v-1h0s1-1,1-1v-1h0s1-1,1-1v-1h0s1-1,1-1v-1h0s1-1,1-1v-5h0s1-1,1-1v-1h0s1-1,1-1V7l-1-1ZM919,31v2h0s-1,1-1,1v1h0s-1,1-1,1v1h0s-1,1-1,1v2h0s-1,1-1,1h0s-1,1-1,1v1h0s-1,1-1,1h0s-1,1-1,1v1h0s-1,1-1,1v1h0s-1,1-1,1h0s-1,1-1,1v1h0s-1,1-1,1h0s-1,1-1,1h0s-1,1-1,1h0s-1,1-1,1v1h0s-1,1-1,1h0s-1,1-1,1h0s-1,1-1,1v1h0s-1,1-1,1h0s-1,1-1,1h0s-1,1-1,1v2h0s-1,1-1,1h0s-1,1-1,1v1h0s-1,1-1,1v3h0s-1,1-1,1v1h0s-1,1-1,1h0s-1,1-1,1h0s-1,1-1,1h0s-1,1-1,1v1h0s-1,1-1,1h0s-1,1-1,1h0s-1,1-1,1v2h0s-1,1-1,1v2h0s-1,1-1,1h0s-1,1-1,1h0s-1,1-1,1h0s-1,1-1,1v1h0s-1,1-1,1h0s-1,1-1,1v3h0s-1,1-1,1h0s-1,1-1,1h0s-1,1-1,1h0s-1,1-1,1h0s-1,1-1,1h0s-1,1-1,1v1h0s-1,1-1,1v1l1,1h0s0,0,0,0h-1l-1,1h0s-1,0-1,0l-1,1h0s-1,1-1,1v1h0s-1,1-1,1h0s-1,1-1,1h0s-1,1-1,1v1h0s-1,1-1,1v1h0s-1,1-1,1v1h0s-1,1-1,1v1h0s-1,1-1,1h0s-1,1-1,1v2h0s-1,1-1,1h0s-1,1-1,1v1h0s-1,1-1,1h0s-1,1-1,1h0s-1,1-1,1l1,1h0v1h0s-1,1-1,1h0s-1,0-1,0l-1,1h0s-1,1-1,1v1h0s-1,0-1,0l-1,1v1h0s-1,1-1,1h0s-1,1-1,1v1h0s-1,0-1,0l-1,1v1h0s-1,1-1,1h0s-1,1-1,1h0s-1,1-1,1h0s-1,1-1,1h0s-1,1-1,1h0s-1,1-1,1v1h0s-1,1-1,1v1h0s-1,1-1,1v1h0s-1,1-1,1h0s-1,1-1,1h0s-1,1-1,1h0s-1,1-1,1h0s-1,1-1,1h0s-1,1-1,1v1h0s-1,1-1,1h0s-1,1-1,1h0s-1,1-1,1v1h0s-1,1-1,1h0s-1,1-1,1h0s-1,1-1,1h0s-1,1-1,1h0s-1,1-1,1h0s-1,1-1,1v1h0s-1,1-1,1v1h0s-1,1-1,1v1h0s-1,1-1,1h0s-1,1-1,1v1h0s-1,1-1,1h0s-1,1-1,1h0s-1,1-1,1v2h0s-1,0-1,0l-1,1h0s-1,1-1,1h0s-1,1-1,1v3h0s-1,1-1,1h0s-1,1-1,1h0s-1,1-1,1h0s-1,1-1,1h0s-1,0-1,0l-1,1h0s-1,1-1,1v2h0s-1,1-1,1v4h0s-1,1-1,1h0s-1,0-1,0h-1l-1,1h0s-1,1-1,1h0s-1,0-1,0l-1,1h0s-1,1-1,1h0s-1,1-1,1h0s-1,1-1,1h0s-1,1-1,1v1h0s-1,1-1,1h0s-1,1-1,1h0s-1,1-1,1v1h0s-1,1-1,1v1h0s-1,1-1,1h0s-1,1-1,1v1h0s-1,1-1,1h0s-1,1-1,1v1h0s-1,0-1,0l-1,1v9h0s-1,0-1,0h0s-1-1-1-1h-1l-1,1h0s-1,0-1,0l-1,1h0s-1,1-1,1h0s-1,0-1,0l-1,1h0s-1,1-1,1v1h0s-1,1-1,1v1h0s-1,1-1,1v1h0s-1,1-1,1h0s-1,1-1,1h0s-1,1-1,1h0s-1,1-1,1v1h0s-1,0-1,0l-1,1h0s-1,1-1,1h0s-1,1-1,1h0s-1,1-1,1v4h0s-1,0-1,0l-1,1v2h0s-1,1-1,1h0s-1,1-1,1h0s-1,1-1,1v1h0s-1,1-1,1h0s-1,1-1,1v2h0s-1,1-1,1v1h0s-1,1-1,1h0s-1,1-1,1h0s-1,1-1,1h0s-1,1-1,1v2h0s-1,1-1,1h0s-1,1-1,1h0s0,0,0,0v-1l-1-1h0s0,0,0,0l1-1v-2h0s1-1,1-1v-2h0s1-1,1-1h0s1-1,1-1h0s1-1,1-1v-2h0s1-1,1-1h0s1-1,1-1v-1h0s1-1,1-1v-1h0s1-1,1-1v-3h0s1-1,1-1v-4h0s1-1,1-1v-7h0s1,0,1,0h2l1-1h0s1-1,1-1h0s1-1,1-1v-3h0s1-1,1-1v-2h0s1-1,1-1v-1h0s1-1,1-1v-2h0s1-1,1-1h0s1-1,1-1v-1h0s1-1,1-1v-1h0s1-1,1-1v-1h0s1-1,1-1v-1h0s1-1,1-1v-1h0s1-1,1-1v-1h0s1-1,1-1h0s1-1,1-1v-5h0s1-1,1-1h0s1,0,1,0l1-1v-1h0s1-1,1-1h0s1-1,1-1v-2h0s1-1,1-1h0s1-1,1-1v-2h0s1-1,1-1v-1h0s1-1,1-1v-1h0s1-1,1-1v-1h0s1-1,1-1v-1h0s1-1,1-1h0s1-1,1-1v-2h0s1-1,1-1h0s1-1,1-1v-1h0s1-1,1-1v-2h0s1,0,1,0l1-1v-1h0s1-1,1-1h0s1-1,1-1v-3h0s1-1,1-1h0s1-1,1-1v-1h0s1-1,1-1v-1h0s1-1,1-1v-1h0s1-1,1-1v-4h0s1-1,1-1h0s1-1,1-1h0s1-1,1-1v-1h0s1-1,1-1v-1h0s1-1,1-1h0s1,0,1,0l1-1-1-1h0s0,0,0,0l1-1v-2h0s1-1,1-1h0s1-1,1-1h0s1-1,1-1v-1h0s1-1,1-1h0s1-1,1-1v-2h0s1-1,1-1h0s1-1,1-1v-1h0s1-1,1-1v-1h0s1-1,1-1v-1h0s1-1,1-1h0s1-1,1-1h0s1-1,1-1h0s1-1,1-1h0s1-1,1-1h0s1-1,1-1v-1h0s1-1,1-1v-1h0s1-1,1-1h0s1-1,1-1v-1h0s1-1,1-1h0s1-1,1-1h0s1-1,1-1h0s1-1,1-1v-2h0s1,0,1,0l1-1v-1h0s1-1,1-1v-1h0s1-1,1-1h0s1-1,1-1v-1h0s1-1,1-1h0s1-1,1-1h0s1,0,1,0l1-1v-1h0s1-1,1-1v-1h0s1-1,1-1v-1h0s1-1,1-1h0s1-1,1-1v-1h0s1-1,1-1h0s1-1,1-1v-2h0s1-1,1-1v-1h0s1-1,1-1h0s1-1,1-1h0s1-1,1-1h0s1-1,1-1h0s1-1,1-1v-1h0s1-1,1-1h0s1-1,1-1h0s1-1,1-1h0s1-1,1-1v-1h0s1-1,1-1v-2h0s1-1,1-1v-1h0s1-1,1-1h0s1-1,1-1h0s1,0,1,0l1-1h0s1-1,1-1v-2h0s1-1,1-1h0s1,0,1,0l1-1h0s1-1,1-1h0s1-1,1-1v-1h0s1-1,1-1h0s1-1,1-1h0s1,0,1,0l1-1h0s1-1,1-1v-1h0s1-1,1-1h0s1-1,1-1h0s1-1,1-1h0s1-1,1-1h0s1-1,1-1h0s1-1,1-1h0s1-1,1-1h0s1-1,1-1h0s1-1,1-1h0s1-1,1-1h0s1-1,1-1h0s1,0,1,0l1-1h0s1-1,1-1h0s1,0,1,0l1-1h0s1-1,1-1h0s1-1,1-1h0s1-1,1-1h0s1,0,1,0l1-1h0s1,0,1,0l1-1h0s1-1,1-1h0s1,0,1,0l1-1v-1h0s1-1,1-1h0s1-1,1-1h0s1,0,1,0l1-1h0s1,0,1,0l1-1h0s1-1,1-1h0s1,0,1,0l1-1h0s1,0,1,0h1l1-1h0s1,0,1,0l1-1h0s1,0,1,0l1-1h0s1,0,1,0h1s1,1,1,1h0v1Z"/>
  <path d="M751,291h0s0,0,0,0h0s0,0,0,0"/>
  <path d="M802,555.99l-1-1h0s-1,0-1,0h-4l-1-1h0s-1,0-1,0h-1l-1-1h0s-1,0-1,0l-1-1h0s-1,0-1,0h-1l-1-1h0s-1-1-1-1h0s-1-1-1-1h0s-1,0-1,0l-1-1h0s-1,0-1,0l-1-1h0s-1-1-1-1h0s-1,0-1,0l-1-1h0s-1-1-1-1v-1h0s-1-1-1-1h0s-1,0-1,0l-1-1h0s-1-1-1-1h0s-1,0-1,0l-1-1h0s-1-1-1-1h0s-1,0-1,0h-2l-1-1h0s-1,0-1,0l-1-1,1-1h3v-1h0s-1-1-1-1h0s-1-1-1-1v-1h0s-1-1-1-1h0s-1-1-1-1v-2h0s-1-1-1-1h0s-1-1-1-1v-2h0s-1-1-1-1v-4l1-1h0s0,0,0,0h-3l-1-1v-3h0s-1-1-1-1v-3h0s-1-1-1-1v-1l1-1h0v-2h0s-1-1-1-1v-2h0s-1-1-1-1v-1h0s-1-1-1-1h0s-1-1-1-1v-1h0s-1-1-1-1v-1l1-1h0v-4h0s-1-1-1-1v-13l1-1h0v-9l1-1h1v-4l1-1h0v-3l1-1h0v-1l1-1h0v-2l1-1h0v-1l1-1h0v-3l1-1h0v-3l1-1h0s1-1,1-1h0s1-1,1-1h0v-1l1-1h0v-1l1-1h0v-3l1-1h0s1-1,1-1h0v-4l1-1h0v-1l1-1h0v-1l1-1h0s1-1,1-1h0s1-1,1-1h0v-1l1-1h0v-1l1-1h0v-1l1-1h0s1-1,1-1h0v-1h0s-1-1-1-1l1-1h0s1-1,1-1h0s1-1,1-1h0v-1l1-1h0s1-1,1-1h0v-1l1-1h0v-1l1-1h0v-2l1-1h0v-2l1-1h0s1-1,1-1h0s1-1,1-1h0s1-1,1-1h0s1-1,1-1h0v-2h0s-1-1-1-1h0s-1-1-1-1v-1l1-1h0s1-1,1-1h0s1-1,1-1l1,1h0s1,0,1,0h0v-2l1-1h0s1-1,1-1h0s1-1,1-1h0s1-1,1-1h0s1-1,1-1h0v-1l1-1h1s1-1,1-1h0s1-1,1-1h0s1-1,1-1h0s1-1,1-1h0s1-1,1-1h2s1-1,1-1h0s1-1,1-1h0s1-1,1-1h0s1-1,1-1h0s1-1,1-1h0s1-1,1-1h7l1,1h0s1,1,1,1h0s1,0,1,0l1,1v4l-1,1h0s0,0,0,0l1,1v2h0s1,1,1,1v3l-1,1h0s-1,1-1,1h-1s-1,1-1,1h-1s-1,1-1,1h0s-1,1-1,1h0v1l-1,1h0s-1,1-1,1h0s-1,1-1,1h-1s-1,1-1,1h0s-1,1-1,1h0v1l-1,1h0s-1,1-1,1h0s-1,1-1,1h-1v2l-1,1h0v1l-1,1h0s-1,1-1,1h-2v3l-1,1h0v1l-1,1h0s-1,1-1,1h0s-1,1-1,1h0v2l-1,1h0s-1,1-1,1h0v1l-1,1h0v1l-1,1h0s-1,1-1,1h0v1l-1,1h0v1l-1,1h0v1l-1,1h0s-1,1-1,1h-1v1l-1,1h0s-1,1-1,1h0s-1,1-1,1h0s-1,1-1,1h0v6l-1,1h0s-1,1-1,1h0s-1,1-1,1h0v3l-1,1h-1v1l-1,1h0v2l-1,1h0v2l-1,1h0v1l-1,1h0s-1,1-1,1h0v1h0s1,1,1,1l-1,1h0v2l-1,1h0v6h0s1,1,1,1l-1,1h0s-1,1-1,1h0s-1,1-1,1h-1v9l-1,1h0v7h0s1,1,1,1v2l-1,1h0v2h0s1,1,1,1v1h0s1,1,1,1v5h0s1,1,1,1v2h0s1,1,1,1v1h0s1,1,1,1v2h0s1,1,1,1v1h0s1,1,1,1v1h0s1,1,1,1v1h0s1,1,1,1v2h0s1,1,1,1v1h0s1,1,1,1v1h0s1,1,1,1v2h0s1,1,1,1h0s1,1,1,1v1h0s1,1,1,1v1h0s1,0,1,0l1,1h0s1,1,1,1h0s1,1,1,1h0s1,1,1,1h0s1,1,1,1h0s1,1,1,1v2h0s1,1,1,1l-1,1h0v1h0s1,1,1,1h0s1,0,1,0h1l1,1h0s1,0,1,0h1l1,1h0s1,0,1,0h2l1,1h0s1,1,1,1h0s1,1,1,1h0s1,1,1,1h0s1,1,1,1h0s1,1,1,1h0s1,1,1,1v3l-1,1h-1s-1,1-1,1h0s-1,1-1,1h0s-1,1-1,1h0s-1,1-1,1"/>
  <path d="M692,372v-1h0s-1-1-1-1h0s-1,0-1,0h-1s0,0,0,0l1,1h0s1,0,1,0l1,1h0s0,0,0,0"/>
  <path d="M686,386.99l-1-1v-2l1-1h1l1,1v1l-1,1h0s-1,1-1,1"/>
  <path d="M992.35,414.74h-1l-1-1h0s-1,0-1,0h-4l-1-1h0s-1,0-1,0h-3l-1-1h0s-1,0-1,0l-1-1h0s-1-1-1-1v-11h0s-1-1-1-1l1-1h0v-3l1-1h0s1-1,1-1h0s1-1,1-1h0s1-1,1-1h0s1-1,1-1h0s1-1,1-1h0s1-1,1-1h0v-1l1-1h9l1,1h0s1,1,1,1h0s1,0,1,0l1,1h0s1,1,1,1h0s1,1,1,1v2h0s1,1,1,1v1h0s1,1,1,1v5l-1,1h0v3l-1,1h0v1l-1,1h0v3l-1,1h0s-1,1-1,1h0s-1,1-1,1h0s-1,1-1,1h-1s-1,1-1,1"/>
  <path d="M1156,517.99l-1-1h0s-1,0-1,0h-1s-1,1-1,1h-1l-1-1h0s-1,0-1,0l-1-1h0s-1,0-1,0h-7l-1-1h0s-1,0-1,0l-1-1h0s-1,0-1,0l-1-1h0s-1,0-1,0h-7l-1-1h0s-1-1-1-1h0s-1,0-1,0l-1-1h0s-1,0-1,0l-1-1h0s-1,0-1,0h-1l-1-1h0s-1-1-1-1h0s-1-1-1-1h0s-1-1-1-1h0s-1-1-1-1h0s-1-1-1-1v-2h0s-1,0-1,0l-1-1v-1h0s-1-1-1-1v-4l1-1h0s1-1,1-1h2s1-1,1-1h0s1-1,1-1h7l1,1h0s1,1,1,1h0s1,0,1,0h1l1,1h0s1,1,1,1h0s1,0,1,0l1,1h0s1,1,1,1h0s1,0,1,0h17s1-1,1-1h0s1-1,1-1h7s1-1,1-1h0s1-1,1-1h1s1-1,1-1h1s1-1,1-1h1s1-1,1-1h0s1-1,1-1h0v-1l1-1h0s1-1,1-1h0v-6l1-1h0v-3h0s-1-1-1-1h0s-1-1-1-1v-1h0s-1-1-1-1v-1h0s-1-1-1-1v-2h0s-1-1-1-1h0s-1,0-1,0h-1l-1-1h0s-1,0-1,0h-2l-1-1h0s-1,0-1,0h-1l-1-1h0s-1,0-1,0h-1l-1-1h0s-1-1-1-1h0s-1-1-1-1v-1h0s-1-1-1-1v-2h0s-1,0-1,0h-2l-1-1h0s-1-1-1-1h0s-1-1-1-1h0s-1-1-1-1h0s-1,0-1,0l-1-1h0s-1,0-1,0h-4s-1,1-1,1l-1-1h0s-1-1-1-1h0s-1-1-1-1l1-1h0v-1h0s-1-1-1-1h0s-1-1-1-1h0s-1-1-1-1h0s-1,0-1,0l-1-1h0s-1-1-1-1v-1h0s-1,0-1,0l-1-1h0s-1,0-1,0l-1-1h0s-1-1-1-1v-2h0s-1-1-1-1v-1h0s-1-1-1-1v-1h0s-1-1-1-1v-1h0s-1-1-1-1v-6h0s-1-1-1-1v-4l1-1h0v-1l1-1h0v-6l1-1h0v-1l1-1h0s1-1,1-1h0s1-1,1-1h0s1-1,1-1h0s1-1,1-1h0s1-1,1-1h0v-1l1-1h0s1-1,1-1h0s1-1,1-1h3s1-1,1-1h16l1,1h0s1,0,1,0h1l1,1h0s1,0,1,0h1l1,1h0s1,0,1,0h1l1,1h0s1,0,1,0l1,1h0s1,1,1,1h0s1,1,1,1h0s1,1,1,1h0s1,1,1,1h0s1,1,1,1h0s1,1,1,1h0s1,1,1,1v4h0s1,1,1,1v3l-1,1h0s-1,1-1,1h-6l-1-1h0s-1,0-1,0h-2l-1-1h0s-1,0-1,0l-1-1h0s-1,0-1,0h-3s-1,1-1,1h-3s-1,1-1,1h-1s-1,1-1,1h0s-1,1-1,1h-1v3h0s1,0,1,0l1,1h0s1,1,1,1h0s1,1,1,1h0s1,1,1,1v1h0s1,1,1,1v2h0s1,1,1,1v1h0s1,1,1,1h0s1,1,1,1h0s1,0,1,0l1,1v1h0s1,0,1,0l1,1h0s1,0,1,0h1l1,1h0s1,0,1,0l1,1h0s1,0,1,0h1l1,1h0s1,0,1,0h1l1,1v1h0s1,1,1,1h0s1,1,1,1h0s1,1,1,1h0s1,0,1,0l1,1h0s1,1,1,1h0s1,0,1,0l1,1h0s1,0,1,0l1,1h0s1,1,1,1v1h0s1,0,1,0l1,1h0s1,1,1,1h0s1,1,1,1h0s1,1,1,1h0s1,0,1,0l1,1h0s1,1,1,1h0s1,1,1,1h0s1,1,1,1l-1,1h0v1h0s1,1,1,1v1h0s1,1,1,1h0s1,0,1,0l1,1h0s1,1,1,1v1h0s1,1,1,1v11h0s1,1,1,1h0s1,1,1,1v4h0s1,1,1,1l-1,1h0s-1,1-1,1h0s-1,1-1,1h0v1l-1,1h0s-1,1-1,1h0v1l-1,1h0v4l-1,1h0v1l-1,1h0s-1,1-1,1h-1s-1,1-1,1h0s-1,1-1,1h-1v1l-1,1h0s-1,1-1,1h0s-1,1-1,1h0s-1,1-1,1h0s-1,1-1,1h0s-1,1-1,1h-1s-1,1-1,1h-1s-1,1-1,1h-1s-1,1-1,1h0s-1,1-1,1h0s-1,1-1,1h-1s-1,1-1,1h-8s-1,1-1,1"/>
  <path d="M653,419l1-1h1s1-1,1-1h0s0,0,0,0l-1-1v-1h0s-1-1-1-1h0s0,0,0,0l-1,1h0v1l-1,1h0v1h0s1,1,1,1h0s0,0,0,0"/>
  <path d="M1048,524.99h-4l-1-1h0s-1-1-1-1h0s-1-1-1-1h0s-1-1-1-1h0s-1-1-1-1h0s-1-1-1-1h0s-1-1-1-1h0s-1,0-1,0l-1-1v-1h0s-1-1-1-1v-1h0s-1,0-1,0l-1-1h0s-1-1-1-1h0s-1-1-1-1v-4h0s-1-1-1-1v-1h0s-1-1-1-1h0s-1-1-1-1v-1h0s-1-1-1-1v-3h0s-1-1-1-1v-1h0s-1-1-1-1v-6h0s-1-1-1-1v-1h0s-1,0-1,0l-1-1v-1l1-1h0v-17h0s-1-1-1-1v-8l1-1h0v-3l1-1h0v-11l1-1h0v-8l1-1h0v-1l1-1h0v-1l1-1h0v-1l1-1h0v-1l1-1h0v-1l1-1h0v-1l1-1h0s1-1,1-1h0s1-1,1-1h1s1-1,1-1h1s1-1,1-1h1s1-1,1-1h4l1,1h0s1,1,1,1v1h0s1,1,1,1h0s1,0,1,0l1,1h0s1,1,1,1v2h0s1,1,1,1v2h0s1,1,1,1l-1,1h0s0,0,0,0l1,1-1,1h0v1l-1,1h0s-1,1-1,1h0v2l-1,1h0v1l-1,1h0v2l-1,1h0v4l-1,1h0v1h0s1,1,1,1l-1,1h0v1l-1,1h0v1l-1,1h0v22h0s1,1,1,1v8h0s1,1,1,1v2h0s1,1,1,1v3h0s1,1,1,1h0s1,1,1,1v2h0s1,1,1,1h0s1,1,1,1v2h0s1,1,1,1v1h0s1,0,1,0h0s1-1,1-1h3v-2l1-1h0v-1l1-1h0v-1l1-1h0s1-1,1-1h0s1-1,1-1h0s1-1,1-1h0v-5l1-1h0v-2l1-1h0v-18h0s-1-1-1-1l1-1h0s1-1,1-1h0v-5h0s-1-1-1-1v-2l1-1h0v-4l1-1h0v-1l1-1h0v-1l1-1h0v-1l1-1h0s1-1,1-1h0s1-1,1-1h0s1-1,1-1h0s1-1,1-1h1s1-1,1-1h0s1-1,1-1h10l1,1h0s1,1,1,1v8h0s1,1,1,1h0s1,0,1,0l1,1v4l-1,1h0v8l-1,1h0s-1,1-1,1h0v1l-1,1h0s-1,1-1,1h0v8h0s1,1,1,1v2h0s1,1,1,1h0s1,1,1,1h0s1,0,1,0l1,1h0s1,1,1,1h0s1,1,1,1h0s1,0,1,0l1,1h0s1,1,1,1h0s1,0,1,0h1l1,1h0s1,1,1,1h0s1,1,1,1h0s1,1,1,1v2h0s1,1,1,1l-1,1h0s-1,1-1,1h0s-1,1-1,1h0s-1,1-1,1h0s-1,1-1,1h0s-1,1-1,1h0s-1,1-1,1h-1s-1,1-1,1h-1l-1-1h0s-1,0-1,0h-1s-1,1-1,1h-4l-1-1h0s-1,0-1,0h-2l-1-1h0s-1,0-1,0h-1s-1,1-1,1h0s-1,1-1,1h0v1l-1,1h0v1l-1,1h0v2l-1,1h0s-1,1-1,1h0v1l-1,1h0v1l-1,1h0s-1,1-1,1h0v2h0s1,1,1,1l-1,1h0s-1,1-1,1h-1s-1,1-1,1h0s-1,1-1,1h0v1l-1,1h0s-1,1-1,1h0s-1,1-1,1h0s-1,1-1,1h-1s-1,1-1,1h-1s-1,1-1,1h-7s-1,1-1,1"/>
  <path d="M983,500.99h-2l-1-1h0s-1,0-1,0l-1-1v-1h0s-1-1-1-1v-1h0s-1-1-1-1h0s-1-1-1-1v-1h0s-1-1-1-1v-5h0s-1-1-1-1v-8h0s-1-1-1-1v-13l1-1h0v-5h0s-1-1-1-1l1-1h0v-4h0s-1-1-1-1l1-1h0v-5l1-1h0v-1l1-1h0v-2l1-1h0s1-1,1-1h0s1-1,1-1h0s1-1,1-1h0s1-1,1-1h0s1-1,1-1h0s1-1,1-1h0s1-1,1-1h5l1,1h0s1,0,1,0h3l1,1h0s1,1,1,1v1h0s1,1,1,1v15l-1,1h0s-1,1-1,1h0v7l-1,1h0v4l-1,1h0v3l-1,1h0v5l-1,1h0v1h0s1,1,1,1l-1,1h0v3h0s1,1,1,1h0s1,1,1,1v1h0s1,1,1,1v4l-1,1h0v1l-1,1h0v2l-1,1h0s-1,1-1,1h0s-1,1-1,1h0s-1,1-1,1h-3s-1,1-1,1"/>
  <path d="M627,448l1-1h1s1-1,1-1h0v-1h0s0,0,0,0l-1,1h-2v2h0s0,0,0,0"/>
  <path d="M959,455h0v-2l-1-1h0v-1l-1-1h0s-1-1-1-1h-2s-1-1-1-1h-3s-1-1-1-1h-8l-1,1h0s-1,0-1,0h-6s-1-1-1-1h-1l-1,1h0s-1,0-1,0h-3l-1,1v1h0s-1,1-1,1h0s-1,1-1,1h0s-1,0-1,0h-1l-1,1h0s-1,1-1,1v5h0s-1,1-1,1v1h0s-1,1-1,1v2h0s-1,1-1,1h0s-1,1-1,1h0s-1,1-1,1h0s-1,1-1,1h0s-1,1-1,1h0s-1,1-1,1h0s-1,1-1,1v1h0s-1,1-1,1v1h0s-1,1-1,1h0s-1,1-1,1h0s-1,1-1,1h0s-1,1-1,1h0s-1,1-1,1h0s-1,0-1,0l-1,1h0s-1,1-1,1h0s-1,1-1,1h0s-1,0-1,0l-1,1h0s0,0,0,0l-1-1h0v-7h0s1-1,1-1h0s1-1,1-1v-1h0s1-1,1-1v-12l-1-1h0v-1l-1-1h0s-1-1-1-1h0v-1l-1-1h0v-1h0s1,0,1,0h2l1-1h0s1-1,1-1h0s1-1,1-1h0s1-1,1-1v-1h0s1-1,1-1v-5l-1-1h0s-1-1-1-1h0v-1l-1-1h-1s-1-1-1-1h-1l-1,1h0s-1,0-1,0h-1s-1-1-1-1h0s-1-1-1-1h-8l-1,1h0s-1,0-1,0h-4l-1,1h0s-1,0-1,0l-1,1h0s-1,0-1,0h-1l-1,1h0s-1,0-1,0l-1,1h0s-1,0-1,0l-1,1h0s-1,0-1,0l-1,1h0s-1,0-1,0l-1,1h0s-1,0-1,0l-1,1h0s-1,0-1,0l-1,1h0s-1,0-1,0l-1,1h0s-1,1-1,1h0s-1,0-1,0l-1,1v1h0s-1,1-1,1h0s-1,1-1,1v1h0s-1,1-1,1h0s-1,1-1,1h0s-1,1-1,1h0s-1,1-1,1v1h0s-1,1-1,1v1h0s-1,0-1,0l-1,1h0s-1,1-1,1h0s-1,1-1,1v1h0s-1,1-1,1h0s-1,1-1,1h0s-1,1-1,1v1h0s-1,1-1,1h0s-1,1-1,1v1h0s-1,1-1,1h0s-1,1-1,1v1h0s-1,1-1,1h0s-1,1-1,1h0s-1,1-1,1v1h0s-1,1-1,1h0s-1,1-1,1v1h0s-1,1-1,1v1h0s-1,1-1,1v2h0s-1,1-1,1v1h0s-1,1-1,1h0s-1,1-1,1h0s-1,1-1,1v1h0s-1,1-1,1v1h0s-1,1-1,1v7h0s-1,1-1,1v2l1,1h0v2h0s-1,1-1,1v1l1,1h0s1,1,1,1h0s1,1,1,1h0s1,1,1,1h0v1l1,1h0s1,1,1,1h0s1,1,1,1h0s1,1,1,1h0s1,1,1,1h0s1,1,1,1h0s1,1,1,1h1l1-1h0s1,0,1,0h0s1,1,1,1h2s1,1,1,1h11l1-1h0s1-1,1-1h0s1,0,1,0l1-1h0s1,0,1,0l1-1h0s1-1,1-1h0s1-1,1-1h0s1-1,1-1h0s1,0,1,0h2l1-1h0s1-1,1-1v-1h0s1-1,1-1h0s1-1,1-1h0s1,0,1,0h3l1-1h0s1-1,1-1v-3h0s1-1,1-1v-1h0s1-1,1-1h0s1,0,1,0l1-1h0s1,0,1,0h1v1l1,1h0s1,1,1,1h1s1,1,1,1h8s1,1,1,1h7l1-1h0s1-1,1-1h0s1,0,1,0l1-1h0s1-1,1-1h0s1,0,1,0h1l1-1h0s1-1,1-1h0s1-1,1-1h0s1-1,1-1h0s1-1,1-1h0s1,0,1,0l1-1h0s1-1,1-1h0s1-1,1-1h0s1-1,1-1h0s1-1,1-1v-1h0s1-1,1-1h0s1-1,1-1h0s1-1,1-1v-1h0s1-1,1-1v-1h0s1,0,1,0l1-1h0s1-1,1-1v-1h0s1-1,1-1h0s1-1,1-1h0s1-1,1-1h0s1-1,1-1h0s1-1,1-1h0s1,0,1,0l1-1h0s0,0,0,0l1,1h0s0,0,0,0l-1,1v1l1,1h0v3h0s-1,1-1,1v5h0s-1,1-1,1l1,1h0v2h0s-1,1-1,1v3h0s-1,1-1,1v3l1,1h0s1,1,1,1h0s1,1,1,1h1v3l1,1h0s1,1,1,1h0s1,1,1,1h0s1,1,1,1h4l1-1h0s1,0,1,0h0s1,1,1,1h3l1-1h0s1-1,1-1h0s1,0,1,0l1-1v-6h0s1-1,1-1v-5h0s1-1,1-1l-1-1h0v-2h0s1-1,1-1v-2h0s1-1,1-1v-7h0s1,0,1,0l1-1h0s1-1,1-1v-8h0s1-1,1-1v-14l-1-1ZM880,457h-1l-1,1v4h0s-1,1-1,1v1h0s-1,1-1,1v1h0s-1,1-1,1v1h0s-1,1-1,1v6h0s-1,1-1,1v1h0s-1,1-1,1h0s-1,1-1,1v1h0s-1,1-1,1v2h0s-1,1-1,1h0s-1,1-1,1h0s-1,1-1,1v1h0s-1,1-1,1h0s-1,1-1,1h0s-1,1-1,1h0s-1,1-1,1h0s-1,1-1,1v1h0s-1,1-1,1h0s-1,1-1,1h0s-1,0-1,0h-1l-1,1h0s-1,1-1,1h0s-1,0-1,0l-1,1h0s-1,0-1,0h-4s-1-1-1-1h0s0,0,0,0l1-1v-2h0s1-1,1-1v-1h0s1-1,1-1v-1h0s1-1,1-1h0s1-1,1-1v-4h0s1-1,1-1h0s1-1,1-1h0s1-1,1-1h0s1-1,1-1v-1h0s1-1,1-1h0s1-1,1-1v-1h0s1-1,1-1h0s1-1,1-1h0s1-1,1-1v-3h0s1-1,1-1h0s1,0,1,0l1-1v-1h0s1,0,1,0l1-1h0s1-1,1-1h0s1-1,1-1h0s1-1,1-1v-1h0s1-1,1-1h0s1-1,1-1h0s1-1,1-1h0s1,0,1,0h2l1-1h0s1,0,1,0l1-1h0s1,0,1,0h0s0,0,0,0Z"/>
  <path d="M839,470.99l-1-1v-1l1-1,1,1v1l-1,1"/>
  <path d="M606,479l1-1h0v-1h0s0,0,0,0l-1,1h-1s-1,1-1,1h0s0,0,0,0h2"/>
  <path d="M63,999.99h-14l-1-1h0s-1,0-1,0l-1-1h0s-1,0-1,0h-5s-1,1-1,1h-3l-1-1h0s-1,0-1,0l-1-1h0s-1,0-1,0h-3l-1-1h0s-1,0-1,0h-1l-1-1h0s-1,0-1,0l-1-1h0s-1,0-1,0l-1-1h0s-1-1-1-1h0s-1-1-1-1h0s-1-1-1-1h0s-1-1-1-1h0s-1-1-1-1h0s-1-1-1-1h0s-1-1-1-1h0s-1-1-1-1v-1h0s-1-1-1-1h0s-1,0-1,0l-1-1h0s-1-1-1-1h0s-1-1-1-1h0s-1-1-1-1h0s-1-1-1-1v-1h0s-1-1-1-1v-1h0s-1-1-1-1v-1h0s-1-1-1-1v-1h0s-1-1-1-1v-5h0s-1-1-1-1v-19h0s-1-1-1-1v-1l1-1h0v-4l1-1h0v-1l1-1h0v-15l1-1h0v-1l1-1h0v-4l1-1h0v-1l1-1h0s1-1,1-1h0v-1l1-1h0v-3l1-1h0s1-1,1-1h0v-2l1-1h0v-2l1-1h0v-1l1-1h0v-2l1-1h0v-2l1-1h0v-2l1-1h0s0,0,0,0l-1-1,1-1h0v-1l1-1h0v-1l1-1h0v-1l1-1h0v-1l1-1h0v-1l1-1h0s1-1,1-1h0v-2l1-1h0v-1l1-1h0v-1l1-1h0v-1l1-1h0v-1l1-1h0s1-1,1-1h0v-2l1-1h0s1-1,1-1h0v-1l1-1h0v-2l1-1h0v-1l1-1h0v-1l1-1h0v-1l1-1h0s1-1,1-1h0s1-1,1-1h0s1-1,1-1h0s1-1,1-1h0v-2l1-1h0v-1l1-1h0v-2l1-1h0v-1l1-1h0v-2l1-1h0s1-1,1-1h0v-1l1-1h0v-1l1-1h0v-1l1-1h0v-1l1-1h0v-1l1-1h0s1-1,1-1h0v-1l1-1h0v-1l1-1h0v-1l1-1h0s1-1,1-1h0v-1l1-1h0v-2l1-1h0v-1l1-1h0s1-1,1-1h0s1-1,1-1h0s1-1,1-1h0v-1l1-1h0v-1l1-1h0s1-1,1-1h0v-2l1-1h0s1-1,1-1h0s1-1,1-1h0s1-1,1-1h0s1-1,1-1h0v-3l1-1h0s1-1,1-1h0v-2l1-1h0v-1l1-1h0s1-1,1-1h0s1-1,1-1h0s1-1,1-1h0v-1l1-1h0v-1l1-1h0s1-1,1-1h0s1-1,1-1h0v-2l1-1h0s1-1,1-1h0s1-1,1-1h0v-1l1-1h0v-1l1-1h0v-1l1-1h0s1-1,1-1h0s1-1,1-1h0s1-1,1-1h0s1-1,1-1h0v-1l1-1h0s1-1,1-1h0s1-1,1-1h0v-2l1-1h0s1-1,1-1h0v-1l1-1h0v-1l1-1h0v-1l1-1h0v-1l1-1h0s1-1,1-1h0s1-1,1-1h1s1-1,1-1h0v-1l1-1h0v-1l1-1h0v-1l1-1h0v-1l1-1h0s1-1,1-1h0v-1l1-1h0s1-1,1-1h0s1-1,1-1h0s1-1,1-1h0v-1l1-1h0v-1l1-1h0s1-1,1-1h0v-2l1-1h0s1-1,1-1h0s1-1,1-1h0s1-1,1-1h0v-1l1-1h0s1-1,1-1h0s1-1,1-1h0s1-1,1-1h0v-1l1-1h0s1-1,1-1h0v-1l1-1h1s1-1,1-1h0s1-1,1-1h0s1-1,1-1h0v-1l1-1h0s1-1,1-1h0s1-1,1-1h0v-1l1-1h0s0,0,0,0l-1-1,1-1h0s1-1,1-1h1v-2l1-1h0s1-1,1-1h0v-1l1-1h1s1-1,1-1h0v-3l1-1h0s1-1,1-1h0s1-1,1-1h0s1-1,1-1h0s1-1,1-1h1v-2l1-1h0s1-1,1-1h0s1-1,1-1h0s1-1,1-1h0s1-1,1-1h0s1-1,1-1h0s1-1,1-1h0s1-1,1-1h0s1-1,1-1h0s1-1,1-1h0v-1l1-1h0v-1l1-1h0v-2l1-1h1s1-1,1-1h0s1-1,1-1h0v-1l1-1h0s1-1,1-1h0s1-1,1-1h0v-1l1-1h0s1-1,1-1h0v-1l1-1h0v-1l1-1h0s1-1,1-1h0s1-1,1-1h0s1-1,1-1h0s1-1,1-1h0v-1l1-1h0s1-1,1-1h0s1-1,1-1h0s1-1,1-1h0v-1l1-1h0v-1l1-1h0s1-1,1-1h0s1-1,1-1h0s1-1,1-1h0s1-1,1-1h0s1-1,1-1h0s1-1,1-1h0s1-1,1-1h0s1-1,1-1h0s1-1,1-1h0v-1l1-1h0s1-1,1-1h0v-1l1-1h1v-1l1-1h0s1-1,1-1h0s1-1,1-1h0s1-1,1-1h0s1-1,1-1h0s1-1,1-1h0v-1l1-1h0s1-1,1-1h0s1-1,1-1h0s1-1,1-1h0s1-1,1-1h0s1-1,1-1h0s1-1,1-1h0s1-1,1-1h0s1-1,1-1h0s1-1,1-1h0s1-1,1-1h0s1-1,1-1h0v-1l1-1h0s1-1,1-1h0s1-1,1-1h0s1-1,1-1h0s1-1,1-1h0s1-1,1-1h0v-1l1-1h0s1-1,1-1h0s1-1,1-1h0s1-1,1-1h0s1-1,1-1h1s1-1,1-1h0s1-1,1-1h0v-1l1-1h0s1-1,1-1h0s1-1,1-1h0s1-1,1-1h1s1-1,1-1h0v-1l1-1h0s1-1,1-1h0s1-1,1-1h0v-1l1-1h1s1-1,1-1h0s1-1,1-1h0s1-1,1-1h0v-1l1-1h0s1-1,1-1h0s1-1,1-1h0s1-1,1-1h1s1-1,1-1h0s1-1,1-1h0s1-1,1-1h0s1-1,1-1h0s1-1,1-1h1s1-1,1-1h0s1-1,1-1h0v-1l1-1h0s1-1,1-1h1s1-1,1-1h0s1-1,1-1h0v-2l1-1h1s1-1,1-1h0s1-1,1-1h1s1-1,1-1h0v-1l1-1h1s1-1,1-1h1v-1l1-1h0s1-1,1-1h1v-2l1-1h1s1-1,1-1h1s1-1,1-1h0s1-1,1-1h0s1-1,1-1h2s1-1,1-1h0s1-1,1-1h0v-1l1-1h0s1-1,1-1h0s1-1,1-1h1s1-1,1-1h0s1-1,1-1h0s1-1,1-1h1s1-1,1-1h1s1-1,1-1h0s1-1,1-1h1s1-1,1-1h0s1-1,1-1h1s1-1,1-1h1s1-1,1-1h0s1-1,1-1h1s1-1,1-1h0s1-1,1-1h0s1-1,1-1h1s1-1,1-1h1s1-1,1-1h1s1-1,1-1h3s1-1,1-1h0v-1l1-1h0s1-1,1-1h0s1-1,1-1h0s1-1,1-1h1s1-1,1-1h1v-1l1-1h0s1-1,1-1h0s1-1,1-1h2s1-1,1-1h2s1-1,1-1h2s1-1,1-1h2s1-1,1-1h2s1-1,1-1h1s1-1,1-1h0s1-1,1-1h1s1-1,1-1h0s1-1,1-1h5l1,1h0s1,0,1,0h0s1-1,1-1h1s1-1,1-1h2s1-1,1-1h1s1-1,1-1h8s1-1,1-1h2s1-1,1-1h9l1,1h0s1,0,1,0h4l1,1h0s1,1,1,1h0s1,1,1,1v6h0s1,0,1,0l1,1v1h0s1,1,1,1h0s1,1,1,1h0s1,1,1,1h0s1,1,1,1v27l-1,1h0s-1,1-1,1h0v5l-1,1h0v4l-1,1h0v1l-1,1h0v1l-1,1h0v1l-1,1h0v2l-1,1h0v1l-1,1h0v3l-1,1h0v1l-1,1h0v2l-1,1h0v1l-1,1h0v1l-1,1h0v2l-1,1h0v1l-1,1h0v2l-1,1h0v2l-1,1h0v2l-1,1h0s-1,1-1,1h0v1l-1,1h0v1l-1,1h0v1l-1,1h0s-1,1-1,1h0v1l-1,1h0v2l-1,1h0v2l-1,1h0v2l-1,1h0v1l-1,1h0v1l-1,1h0v1l-1,1h0v1l-1,1h0v1l-1,1h0s-1,1-1,1h0v1l-1,1h0v2l-1,1h0v2l-1,1h0s-1,1-1,1h0v1l-1,1h0v1l-1,1h-1v2l-1,1h0v1l-1,1h0v1l-1,1h0v1l-1,1h0v1l-1,1h0v2l-1,1h0s-1,1-1,1h0s-1,1-1,1h0s-1,1-1,1h0v1l-1,1h0s-1,1-1,1h0v2l-1,1h0v1l-1,1h-1s-1,1-1,1h0v1l-1,1h0v1l-1,1h0v1l-1,1h0v1l-1,1h0v1l-1,1h0v1l-1,1h0s-1,1-1,1h0v1l-1,1h0s-1,1-1,1h0s-1,1-1,1h0s-1,1-1,1h0s-1,1-1,1h0s-1,1-1,1h0s-1,1-1,1h0s-1,1-1,1h0v1l-1,1h0s-1,1-1,1h0v4l-1,1h0s-1,1-1,1h0s-1,1-1,1h0s-1,1-1,1h0v1l-1,1h0s-1,1-1,1h0s-1,1-1,1h0v1l-1,1h0s-1,1-1,1h0v1l-1,1h0v1l-1,1h0v1l-1,1h0s-1,1-1,1h0v1l-1,1h0s-1,1-1,1h0s-1,1-1,1h0s-1,1-1,1h0s-1,1-1,1h0s-1,1-1,1h0s-1,1-1,1h0v1l-1,1h0v1l-1,1h0s-1,1-1,1h0v1l-1,1h0s-1,1-1,1h0s-1,1-1,1h0s-1,1-1,1h0s-1,1-1,1h0v1l-1,1h0s-1,1-1,1h0s-1,1-1,1h0s-1,1-1,1h0v1l-1,1h-1s-1,1-1,1h0s-1,1-1,1h0s-1,1-1,1h0s-1,1-1,1h0s-1,1-1,1h0v4l-1,1h0s-1,1-1,1h-3s-1,1-1,1h0s-1,1-1,1h0v1l-1,1h0v1l-1,1h0v1l-1,1h-1s-1,1-1,1h0s-1,1-1,1h-1v1l-1,1h0s-1,1-1,1h0s-1,1-1,1h0s-1,1-1,1h0s-1,1-1,1h0s-1,1-1,1h0s-1,1-1,1h0s-1,1-1,1h0s-1,1-1,1h0s-1,1-1,1h0s-1,1-1,1h0s-1,1-1,1h0s-1,1-1,1h0s-1,1-1,1h0s-1,1-1,1h0s-1,1-1,1h0s-1,1-1,1h0s-1,1-1,1h0s-1,1-1,1h0s-1,1-1,1h0s-1,1-1,1h-1s-1,1-1,1h0s-1,1-1,1h0s-1,1-1,1h-1s-1,1-1,1h0s-1,1-1,1h0s-1,1-1,1h0v1l-1,1h0s-1,1-1,1h-1s-1,1-1,1h-2s-1,1-1,1h0s-1,1-1,1h0s-1,1-1,1h0s-1,1-1,1h0s-1,1-1,1h-1s-1,1-1,1h0s-1,1-1,1h0s-1,1-1,1h-2s-1,1-1,1h-1s-1,1-1,1h0s-1,1-1,1h0s-1,1-1,1h-5v1l-1,1h0v1l-1,1h0s-1,1-1,1h-2s-1,1-1,1h-1s-1,1-1,1h-1s-1,1-1,1h-1s-1,1-1,1h-2s-1,1-1,1h-5s-1,1-1,1h0s-1,1-1,1h0s-1,1-1,1h-2s-1,1-1,1h-11l-1-1h0s-1,0-1,0h-5l-1-1h0s-1,0-1,0l-1-1h0s-1-1-1-1v-1h0s-1-1-1-1h0s-1,0-1,0l-1-1h0s-1,0-1,0l-1-1h0s-1,0-1,0h-1l-1-1h0s-1-1-1-1v-1l1-1h0s0,0,0,0l-1-1v-10l1-1h0v-1h0s-1-1-1-1v-2l1-1h0v-3l1-1h0v-5l1-1h0s1-1,1-1h0s1-1,1-1h0s1-1,1-1h4l1,1v8l-1,1h0v9h0s1,1,1,1v1h0s1,1,1,1h0s1,1,1,1h0s1,1,1,1h0s1,1,1,1h0s1,1,1,1h0s1,0,1,0h2s1-1,1-1h12s1-1,1-1h1s1-1,1-1h1s1-1,1-1h1s1-1,1-1h1s1-1,1-1h3s1-1,1-1h1s1-1,1-1h1s1-1,1-1h1s1-1,1-1h0s1-1,1-1h1s1-1,1-1h1s1-1,1-1h0s1-1,1-1h0s1-1,1-1h1s1-1,1-1h1s1-1,1-1h0s1-1,1-1h1s1-1,1-1h0s1-1,1-1h1s1-1,1-1h0s1-1,1-1h0s1-1,1-1h0s1-1,1-1h0s1-1,1-1h2s1-1,1-1h1s1-1,1-1h0s1-1,1-1h0s1-1,1-1h0s1-1,1-1h0s1-1,1-1h0s1-1,1-1h2s1-1,1-1h0s1-1,1-1h0s1-1,1-1h0s1-1,1-1h0s1-1,1-1h0s1-1,1-1h0v-1l1-1h0s1-1,1-1h0s1-1,1-1h0s1-1,1-1h0v-1l1-1h0s1-1,1-1h0s1-1,1-1h1s1-1,1-1h0s1-1,1-1h0v-1l1-1h1s1-1,1-1h0s1-1,1-1h0s1-1,1-1h0s1-1,1-1h0v-1l1-1h0s1-1,1-1h0s1-1,1-1h0s1-1,1-1h0v-1l1-1h0s1-1,1-1h0s1-1,1-1h0s1-1,1-1h0s1-1,1-1h0s1-1,1-1h0s1-1,1-1h0s1-1,1-1h0s1-1,1-1h0s1-1,1-1h0s1-1,1-1h0s1-1,1-1h0s1-1,1-1h0s1-1,1-1h0s1-1,1-1h0s1-1,1-1h0s1-1,1-1h0v-3l1-1h0s1-1,1-1h0s1-1,1-1h0s1-1,1-1h0s1-1,1-1h0s1-1,1-1h0s1-1,1-1h0s1-1,1-1h0v-1l1-1h1v-2l1-1h0v-1l1-1h0s1-1,1-1h1s1-1,1-1h1s1-1,1-1h0v-1l1-1h0s1-1,1-1h2s1-1,1-1h0v-3l1-1h1v-1l1-1h0s1-1,1-1h0s1-1,1-1h0v-1l1-1h0v-2l1-1h0s1-1,1-1h0v-2l1-1h0s1-1,1-1h0v-1l1-1h0s1-1,1-1h0s1-1,1-1h0s1-1,1-1h0v-4l1-1h0s1-1,1-1h0s1-1,1-1h0s1-1,1-1h0v-2l1-1h0s1-1,1-1h0v-2l1-1h0s1-1,1-1h0v-1l1-1h0v-1l1-1h0s1-1,1-1h0s1-1,1-1h0s1-1,1-1h0s1-1,1-1h0s1-1,1-1h0s1-1,1-1h0v-1l1-1h0s1-1,1-1h0v-1l1-1h0v-2l1-1h0s1-1,1-1h0v-3l1-1h0v-1l1-1h0s1-1,1-1h0s1-1,1-1h0v-1h0s-1-1-1-1v-1l1-1h0s1-1,1-1h0s1-1,1-1h0s1-1,1-1h0v-1l1-1h0s1-1,1-1h0s1-1,1-1h0v-5l1-1h0s1-1,1-1h1s1-1,1-1h0s1-1,1-1h1v-3l1-1h0v-1l1-1h0v-6l1-1h0v-1l1-1h0s1-1,1-1h0v-1l1-1h0v-2l1-1h0v-1l1-1h0v-2l1-1h0v-3l1-1h0v-1l1-1h0v-2l1-1h0v-1l1-1h0v-1l1-1h0v-1l1-1h0v-2l1-1h0v-1l1-1h0v-3l1-1h0v-2l1-1h0s1-1,1-1h0v-1l1-1h0v-5l1-1h0v-2l1-1h0v-4l1-1h0v-2l1-1h0v-5h0s-1-1-1-1v-1l1-1h0v-5h0s-1,0-1,0l-1-1h0s-1,0-1,0h-8l-1-1h0s-1,0-1,0h-3l-1-1h0s-1,0-1,0h-5s-1,1-1,1h-4s-1,1-1,1h-1s-1,1-1,1h-1s-1,1-1,1h-2s-1,1-1,1h-1s-1,1-1,1h-5s-1,1-1,1h-1s-1,1-1,1h-1s-1,1-1,1h-1s-1,1-1,1h-3s-1,1-1,1h0s-1,1-1,1h-1s-1,1-1,1h-1s-1,1-1,1h-2s-1,1-1,1h-1s-1,1-1,1h-1s-1,1-1,1h-1s-1,1-1,1h-1s-1,1-1,1h0s-1,1-1,1h0s-1,1-1,1h0s-1,1-1,1h0s-1,1-1,1h-2s-1,1-1,1h0s-1,1-1,1h-1s-1,1-1,1h0s-1,1-1,1h0s-1,1-1,1h0s-1,1-1,1h0s-1,1-1,1h-2s-1,1-1,1h0s-1,1-1,1h0s-1,1-1,1h0s-1,1-1,1h-1s-1,1-1,1h-1s-1,1-1,1h0s-1,1-1,1h-1s-1,1-1,1h-1v1l-1,1h0s-1,1-1,1h0s-1,1-1,1h0s-1,1-1,1h0s-1,1-1,1h0s-1,1-1,1h0s-1,1-1,1h-1s-1,1-1,1h0s-1,1-1,1h0s-1,1-1,1h0s-1,1-1,1h0s-1,1-1,1h-1s-1,1-1,1h0s-1,1-1,1h0s-1,1-1,1h0s-1,1-1,1h0s-1,1-1,1h0s-1,1-1,1h0s-1,1-1,1h0s-1,1-1,1h-1s-1,1-1,1h0s-1,1-1,1h0s-1,1-1,1h0s-1,1-1,1h0s-1,1-1,1h0s-1,1-1,1h0s-1,1-1,1h0s-1,1-1,1h0s-1,1-1,1h0s-1,1-1,1h0s-1,1-1,1h0s-1,1-1,1h0s-1,1-1,1h0s-1,1-1,1h0v1l-1,1h0s-1,1-1,1h-1v1l-1,1h0v1l-1,1h-1s-1,1-1,1h-4v4l-1,1h0s-1,1-1,1h0s-1,1-1,1h0s-1,1-1,1h0s-1,1-1,1h0s-1,1-1,1h0s-1,1-1,1h0s-1,1-1,1h0s-1,1-1,1h0s-1,1-1,1h0s-1,1-1,1h0s-1,1-1,1h0v1l-1,1h0s-1,1-1,1h0s-1,1-1,1h-1s-1,1-1,1h0s-1,1-1,1h0s-1,1-1,1h0s-1,1-1,1h0s-1,1-1,1h-1s-1,1-1,1h-1s-1,1-1,1h0v2l-1,1h0v1l-1,1h0v1l-1,1h0s-1,1-1,1h0s-1,1-1,1h0v1l-1,1h0s-1,1-1,1h0s-1,1-1,1h0s-1,1-1,1h0s-1,1-1,1h-1v1l-1,1h0v1l-1,1h0s-1,1-1,1h0s-1,1-1,1h0s-1,1-1,1h0v1l-1,1h0s-1,1-1,1h0v1l-1,1h0s-1,1-1,1h0v1l-1,1h0s-1,1-1,1h0s-1,1-1,1h0s-1,1-1,1h0s-1,1-1,1h0s-1,1-1,1h0s-1,1-1,1h0v1l-1,1h0s-1,1-1,1h0s-1,1-1,1h0v1l-1,1h0s-1,1-1,1h0s-1,1-1,1h0s-1,1-1,1h-1s-1,1-1,1h0v1l-1,1h0v1l-1,1h0s-1,1-1,1h0s-1,1-1,1h0s-1,1-1,1h0s-1,1-1,1h0s-1,1-1,1h0s-1,1-1,1h0s-1,1-1,1h0v1l-1,1h0s-1,1-1,1h0v1l-1,1h0s-1,1-1,1h0v1l-1,1h0v2l-1,1h0s-1,1-1,1h0s-1,1-1,1h0s-1,1-1,1h-1v1l-1,1h0s-1,1-1,1h0s-1,1-1,1h0s-1,1-1,1h0v1l-1,1h0v2l-1,1h0s-1,1-1,1h0s-1,1-1,1h0s-1,1-1,1h0s-1,1-1,1h0s-1,1-1,1h0s-1,1-1,1h0v2l-1,1h0s-1,1-1,1h0s-1,1-1,1h0v1l-1,1h0v1l-1,1h0s-1,1-1,1h0s-1,1-1,1h0s-1,1-1,1h-1s-1,1-1,1h0v1l-1,1h0s-1,1-1,1h0s-1,1-1,1h0v2l-1,1h0s-1,1-1,1h0v1l-1,1h0v1l-1,1h0v1l-1,1h0s-1,1-1,1h0s-1,1-1,1h0v1l-1,1h0v2l-1,1h0s-1,1-1,1h0s-1,1-1,1h0s-1,1-1,1h0s-1,1-1,1h0s-1,1-1,1h0v1l-1,1h0s-1,1-1,1h0v1l-1,1h0s-1,1-1,1h0s-1,1-1,1h0s-1,1-1,1h0s-1,1-1,1h0v1l-1,1h0v2l-1,1h0v1l-1,1h0s-1,1-1,1h0s-1,1-1,1h0s-1,1-1,1h0s-1,1-1,1h0s-1,1-1,1h0s-1,1-1,1h0v2l-1,1h0v1l-1,1h0s-1,1-1,1h0v1l-1,1h0s-1,1-1,1h0v1l-1,1h0v1l-1,1h0v1l-1,1h0s-1,1-1,1h0v1l-1,1h0v1l-1,1h0v1l-1,1h0s-1,1-1,1h0s-1,1-1,1h-1v1l-1,1h0v2l-1,1h0s-1,1-1,1h0v1l-1,1h0v1l-1,1h0v1l-1,1h0s-1,1-1,1h0v1l-1,1h0v1l-1,1h0v1l-1,1h0v1l-1,1h0s-1,1-1,1h0v1l-1,1h0v1l-1,1h0s-1,1-1,1h0s-1,1-1,1h0s-1,1-1,1h0v2l-1,1h0v1l-1,1h0s-1,1-1,1h0v1l-1,1h0s-1,1-1,1h0v1l-1,1h0v1l-1,1h0s-1,1-1,1h0v1l-1,1h0v1l-1,1h0v2l-1,1h0v1l-1,1h0v1l-1,1h0v1l-1,1h0v1l-1,1h0v1l-1,1h0v1l-1,1h0v1l-1,1h0s-1,1-1,1h0v1l-1,1h0v1l-1,1h0v1l-1,1h0v1l-1,1h0v2l-1,1h0s-1,1-1,1h0v1l-1,1h0v1l-1,1h0v1l-1,1h0v1l-1,1h0v2l-1,1h0s-1,1-1,1h0v1l-1,1h0v2l-1,1h0v2l-1,1h0v1l-1,1h0s-1,1-1,1h0v2l-1,1h0v2l-1,1h0v1l-1,1h0v2l-1,1h0v2l-1,1h0v2l-1,1h0s-1,1-1,1h0v2l-1,1h0v1l-1,1h0v3l-1,1h0v4l-1,1h0v2l-1,1h0v3l-1,1h0s-1,1-1,1h0v1l-1,1h0s-1,1-1,1h0v13l-1,1h0v4l-1,1h0v14l-1,1h0v1h0s1,1,1,1h0s1,0,1,0l1,1h0s1,1,1,1v3h0s1,1,1,1h0s1,1,1,1h0s1,1,1,1h0s1,1,1,1v1h0s1,1,1,1v1h0s1,1,1,1h0s1,0,1,0l1,1h0s1,0,1,0l1,1h0s1,0,1,0h1l1,1h0s1,0,1,0l1,1h0s1,1,1,1h0s1,1,1,1h0s1,1,1,1h0s1,0,1,0h4l1,1h0s1,0,1,0h6l1,1h0s1,0,1,0l1,1h0s1,0,1,0h3s1-1,1-1h9l1,1h0s0,0,0,0v-1l1-1h0s1-1,1-1h0s1-1,1-1h0s1-1,1-1h1s1-1,1-1h2s1-1,1-1h0s1-1,1-1h4s1-1,1-1h1s1-1,1-1h5s1-1,1-1h1s1-1,1-1h1s1-1,1-1h2s1-1,1-1h1s1-1,1-1h2s1-1,1-1h1s1-1,1-1h4s1-1,1-1h4s1-1,1-1h1s1-1,1-1h1s1-1,1-1h1s1-1,1-1h1s1-1,1-1h1s1-1,1-1h1s1-1,1-1h1s1-1,1-1h1s1-1,1-1h0v-1l1-1h0s1-1,1-1h0s1-1,1-1h0s1-1,1-1h0s1-1,1-1h0s1-1,1-1h0s1-1,1-1h0s1-1,1-1h1s1-1,1-1h1s1-1,1-1h1s1-1,1-1h0s1-1,1-1h1s1-1,1-1h0s1-1,1-1h0s1-1,1-1h2s1-1,1-1h1s1-1,1-1h0s1-1,1-1h1s1-1,1-1h1s1-1,1-1h0s1-1,1-1h0s1-1,1-1h0s1-1,1-1h2s1-1,1-1h0v-1l1-1h0s1-1,1-1h0s1-1,1-1h1s1-1,1-1h0v-1l1-1h0s1-1,1-1h0s1-1,1-1h0s1-1,1-1h0s1-1,1-1h1s1-1,1-1h0s1-1,1-1h0s1-1,1-1h1s1-1,1-1h1s1-1,1-1h2v-1l1-1h0v-1l1-1h0s1-1,1-1h1v-1l1-1h0s1-1,1-1h2s1-1,1-1h1s1-1,1-1h1s1-1,1-1h1s1-1,1-1h2s1-1,1-1h1s1-1,1-1h0s1-1,1-1h0s1-1,1-1h1v-1h0s-1-1-1-1l1-1h0s1-1,1-1h0s1-1,1-1h0s1-1,1-1h0s1-1,1-1h0s1-1,1-1h0s1-1,1-1h0s1-1,1-1h0v-1l1-1h0s1-1,1-1h1s1-1,1-1h0s1-1,1-1h0s1-1,1-1h0s1-1,1-1h3v-1l1-1h0v-2l1-1h0s1-1,1-1h1s1-1,1-1h0s1-1,1-1h0s1-1,1-1h0s1-1,1-1h0v-1l1-1h1s1-1,1-1h0v-1l1-1h2s1-1,1-1h0s1-1,1-1h1v-1l1-1h0s1-1,1-1h0s1-1,1-1h1s1-1,1-1h1s1-1,1-1h1v-3l1-1h0s1-1,1-1h0s1-1,1-1h0s1-1,1-1h0s1-1,1-1h0s1-1,1-1h1s1-1,1-1h0s1-1,1-1h0s1-1,1-1h0s1-1,1-1h1v-1l1-1h6v-1l1-1h0s1-1,1-1h0v-1h0s-1-1-1-1h0s-1-1-1-1l1-1h0s1-1,1-1h9s1-1,1-1h0s1-1,1-1h0v-1l1-1h0s1-1,1-1h0s1-1,1-1h0s1-1,1-1h0s1-1,1-1h0s1-1,1-1h0s1-1,1-1h0v-3l1-1h0s0,0,0,0l-1-1v-4l1-1h0s1-1,1-1h0s1-1,1-1h0s1-1,1-1h0v-1l1-1h0s1-1,1-1h0s1-1,1-1h0s1-1,1-1h0s1-1,1-1h0s1-1,1-1h0s1-1,1-1h0s1-1,1-1h0s1-1,1-1h0s1-1,1-1h1s1-1,1-1h2s1-1,1-1h1s1-1,1-1h0s1-1,1-1h2l1,1h0s1,1,1,1h0s0,0,0,0l1-1h3v-3h0s-1-1-1-1h0s0,0,0,0v1l-1,1h-1s-1,1-1,1h-2l-1-1,1-1h0s1-1,1-1h0s1-1,1-1h0s1-1,1-1h0v-2l1-1h1s1-1,1-1h1v-3l1-1h0s1-1,1-1h3s1-1,1-1h2l1,1v1h0s0,0,0,0l1-1h0v-1l1-1h2s1-1,1-1h2l1,1h0s1,0,1,0h1s1-1,1-1h2l1,1h0s1,0,1,0l1,1v2l-1,1h0s-1,1-1,1h0s-1,1-1,1h0s-1,1-1,1h0s-1,1-1,1h0s-1,1-1,1h-1v1l-1,1h0s-1,1-1,1h0s-1,1-1,1h0s-1,1-1,1h0s-1,1-1,1h0s-1,1-1,1h0s-1,1-1,1h0s-1,1-1,1h0s-1,1-1,1h0s-1,1-1,1h0s-1,1-1,1h0v1l-1,1h0s-1,1-1,1h-1s-1,1-1,1h0s-1,1-1,1h0s-1,1-1,1h0s-1,1-1,1h0v1l-1,1h0s-1,1-1,1h0s-1,1-1,1h0s-1,1-1,1h0s-1,1-1,1h0s-1,1-1,1h0s-1,1-1,1h0s-1,1-1,1h0s-1,1-1,1h0s-1,1-1,1h0v1l-1,1h0s-1,1-1,1h0s-1,1-1,1h0s-1,1-1,1h-1s-1,1-1,1h0s-1,1-1,1h0s-1,1-1,1h0s-1,1-1,1h0v1l-1,1h0s-1,1-1,1h0s-1,1-1,1h0v1l-1,1h0s-1,1-1,1h-1s-1,1-1,1h0s-1,1-1,1h0s-1,1-1,1h-1v1l-1,1h0s-1,1-1,1h0s-1,1-1,1h0s-1,1-1,1h0s-1,1-1,1h-1s-1,1-1,1h0s-1,1-1,1h0s-1,1-1,1h0s-1,1-1,1h0v1l-1,1h0s-1,1-1,1h-1s-1,1-1,1h-1s-1,1-1,1h0s-1,1-1,1h0s-1,1-1,1h0v3l-1,1h-2s-1,1-1,1h-1l-1-1v-2h0s-1-1-1-1h0s-1,0-1,0h0v1h0s1,1,1,1v4l-1,1h0s-1,1-1,1h0v1l-1,1h0s-1,1-1,1h0s-1,1-1,1h0s-1,1-1,1h0s-1,1-1,1h0s-1,1-1,1h-1s-1,1-1,1h0s-1,1-1,1h0s-1,1-1,1h0s-1,1-1,1h0s-1,1-1,1h0s-1,1-1,1h0s-1,1-1,1h0s-1,1-1,1h0s-1,1-1,1h-1s-1,1-1,1h-1s-1,1-1,1h-1s-1,1-1,1h0s-1,1-1,1h0v1l-1,1h0s-1,1-1,1h0s-1,1-1,1h0s-1,1-1,1h0s-1,1-1,1h0v1l-1,1h0s-1,1-1,1h0s-1,1-1,1h-1s-1,1-1,1h0s-1,1-1,1h0s-1,1-1,1h0s-1,1-1,1h0s-1,1-1,1h0s-1,1-1,1h0s-1,1-1,1h-1s-1,1-1,1h0s-1,1-1,1h0s-1,1-1,1h0s-1,1-1,1h0v1l-1,1h0s-1,1-1,1h0s-1,1-1,1h-1s-1,1-1,1h-1s-1,1-1,1h0s-1,1-1,1h0s-1,1-1,1h0v1l-1,1h0s-1,1-1,1h-1s-1,1-1,1h-3v1l-1,1h0v1l-1,1h0s-1,1-1,1h-1s-1,1-1,1h0s-1,1-1,1h-1s-1,1-1,1h0s-1,1-1,1h0s-1,1-1,1h-1s-1,1-1,1h-1s-1,1-1,1h0s-1,1-1,1h0s-1,1-1,1h0s-1,1-1,1h0s-1,1-1,1h0s-1,1-1,1h-1s-1,1-1,1h0s-1,1-1,1h0s-1,1-1,1h0s-1,1-1,1h0s-1,1-1,1h0s-1,1-1,1h0s-1,1-1,1h0s-1,1-1,1h-2s-1,1-1,1h-1v1l-1,1h0s-1,1-1,1h0s-1,1-1,1h0s-1,1-1,1h-1s-1,1-1,1h-1s-1,1-1,1h0s-1,1-1,1h-1s-1,1-1,1h0s-1,1-1,1h0s-1,1-1,1h0s-1,1-1,1h-1s-1,1-1,1h-1s-1,1-1,1h0s-1,1-1,1h-1s-1,1-1,1h0s-1,1-1,1h-2s-1,1-1,1h-1v1l-1,1h0s-1,1-1,1h0s-1,1-1,1h0s-1,1-1,1h0s-1,1-1,1h0s-1,1-1,1h-1s-1,1-1,1h-2s-1,1-1,1h0s-1,1-1,1h-1s-1,1-1,1h0s-1,1-1,1h-1s-1,1-1,1h-1s-1,1-1,1h-1s-1,1-1,1h-1s-1,1-1,1h-1s-1,1-1,1h-1s-1,1-1,1h-2s-1,1-1,1h-1s-1,1-1,1h-1s-1,1-1,1h-1s-1,1-1,1h-1s-1,1-1,1h-1s-1,1-1,1h0s-1,1-1,1h-2s-1,1-1,1h0s-1,1-1,1h-2s-1,1-1,1h-3s-1,1-1,1h-2s-1,1-1,1h-5l-1-1v-1l1-1h0s0,0,0,0h0s-1,1-1,1h-1s-1,1-1,1h0s-1,1-1,1h0s-1,1-1,1h0s-1,1-1,1h0s-1,1-1,1h-1s-1,1-1,1h-1s-1,1-1,1h-3s-1,1-1,1h-4s-1,1-1,1h-4s-1,1-1,1"/>
  <path d="M1195,484.99l-1-1,1-1,1,1-1,1"/>
  <path d="M560,532v-1h0s0,0,0,0v1h0s0,0,0,0"/>
  <path d="M507,585.99l-1-1,1-1,1,1-1,1"/>
  <path d="M486,621l1-1h0s1-1,1-1h0s1-1,1-1h2v-1l1-1h1v-1l1-1h0s0,0,0,0l-1-1h0s0,0,0,0l-1,1h0v1l-1,1h0s-1,1-1,1h-3s-1,1-1,1h0v3h0s0,0,0,0"/>
  <path d="M469,631h0s0,0,0,0h0s0,0,0,0"/>
  <path d="M403,716l1-1h1s1-1,1-1h1v-3h0s0,0,0,0l-1,1h-1s-1,1-1,1h0s-1,1-1,1h0s-1,1-1,1h0v1h0s1,0,1,0h0"/>
  <path d="M386,734h0s0,0,0,0h0s0,0,0,0"/>
  <path class="cls-1" d="M1157,741v-1l1-1h2"/>
  <path d="M359,755l1-1h0s0,0,0,0h0s-1,1-1,1h-1s0,0,0,0h1"/>
  <path d="M277,847l1-1h0s1-1,1-1h1s0,0,0,0h-3s-1,1-1,1h0s-1,1-1,1h0s0,0,0,0h2"/>
  <path d="M154,952h0s0,0,0,0h0s0,0,0,0"/>
  <path d="M1370.67,572.79h0v-5c-.5-.5-1.5-1.5-2-2v-4c-1.25-1.25-2.75-2.75-4-4v-1l-1-1h-1s-1-1-1-1h-1s-1-1-1-1h-1s-1-1-1-1h-9s-1,1-1,1h-2c-.5.5-1.5,1.5-2,2h-1s-1,1-1,1h-1s-1,1-1,1h-1l-6,6v1c-1.95,1.95-4.05,4.05-6,6v1c-1.25,1.25-2.75,2.75-4,4v3c-.5.5-1.5,1.5-2,2v3s-1,1-1,1v2s-1,1-1,1v3s-1,1-1,1v1c-.5.5-1.5,1.5-2,2v2s-1,1-1,1v1s-1,1-1,1v3s-1,1-1,1v2s-1,1-1,1v1s-1,1-1,1v3s-1,1-1,1v1c-.5.5-1.5,1.5-2,2l1,1h1v1c-.5.5-1.5,1.5-2,2v1c-.5.5-1.5,1.5-2,2v1s-1,1-1,1v6s-1,1-1,1v1c-.5.5-1.5,1.5-2,2v3s-1,1-1,1v2s-1,1-1,1v5s-1,1-1,1v1c-.5.5-1.5,1.5-2,2v4s-1,1-1,1v5s1,1,1,1v1l-1,1h-1l-1,1v7s-1,1-1,1v2s-1,1-1,1v1s-1,1-1,1v2c-.5.5-1.5,1.5-2,2v1s1,1,1,1c0,0-1,1-1,1v6c-1.6,1.6-3.4,3.4-5,5v1c-1.25,1.25-2.75,2.75-4,4v1h0c-1.6,0-3.4,0-5,0-2.29,2.29-4.71,4.71-7,7h-2c-.89.89-2.11,2.11-3,3h-1s-1,1-1,1h-2l-2,2v1c-.5.5-1.5,1.5-2,2v1h0c-.89,0-2.11,0-3,0,0,0-1,1-1,1h-1s-1,1-1,1h-1s-1,1-1,1h-1l-3,3v1s-1,1-1,1c0,0-1-1-1-1h-2s-1,1-1,1h-1s-1,1-1,1h-2s-1,1-1,1h-1c-.5.5-1.5,1.5-2,2h-2s-1,1-1,1h-1s-1,1-1,1h-1s-1,1-1,1h-1s-1,1-1,1h-1c-.89.89-2.11,2.11-3,3h-2c-.5.5-1.5,1.5-2,2h-5s-1-1-1-1h-3s-1-1-1-1h-1v-1s-1-1-1-1v-1l-5-5h-1c-.5-.5-1.5-1.5-2-2h-1c-.89-.89-2.11-2.11-3-3h-1s-1-1-1-1h-1c-1.57-.32-17.3-6.87-14.99-10.45,1.16-1.8,7.38-.68,8.25-.19,0,0,6.34,5.12,6.34,5.12.75-.12,1.64-.25,2.32-.34.61-.09,1.07-.61,1.07-1.23v-6.92c-.5-.5-1.5-1.5-2-2v-1s-1-1-1-1v-1s-1-1-1-1v-1c-.5-.5-1.5-1.5-2-2v-1s-1-1-1-1v-1l-1-1h-5c-.89-.89-2.11-2.11-3-3h-1s-1-1-1-1h-7c-.89.89-2.11,2.11-3,3h-1c-.5.5-1.5,1.5-2,2h-2s-1,1-1,1h-2l-2,2v2s-1,1-1,1v1s-1,1-1,1v9s1,1,1,1v6c1.6,1.6,3.4,3.4,5,5v1c.5.5,1.5,1.5,2,2v1l1,1h1c1.25,1.25,2.75,2.75,4,4h2s1,1,1,1h1s1,1,1,1h1c.89.89,2.11,2.11,3,3h1c2.29,2.29,4.71,4.71,7,7h1v1l-2,2h-1s-1,1-1,1h-1s-1,1-1,1h-8s-1,1-1,1h-7l-1-1v-7s1-1,1-1v-2s-1-1-1-1v-1c-1.25-1.25-2.75-2.75-4-4v-4s1-1,1-1c-.5-.5-1.5-1.5-2-2h-1l-3-3v-1l-3-3h-1c-1.95-1.95-4.05-4.05-6-6h-1c-1.25-1.25-2.75-2.75-4-4h-1s-1-1-1-1h-1s-1-1-1-1h-1l-2-2v-1l-1-1h-1v-1s-1-1-1-1v-1h0c.5,0,1.5,0,2,0,0,0,1-1,1-1h3s1-1,1-1h7l6-6v-7l-3-3h-1s-1-1-1-1h-2s-1-1-1-1h-2c-.5-.5-1.5-1.5-2-2h-8s-1,1-1,1h-3s-1,1-1,1h-1s-1,1-1,1h-2s-1,1-1,1h-2c-.5.5-1.5,1.5-2,2h-1c-.5.5-1.5,1.5-2,2h-1s-1,1-1,1h-1l-2,2v2s-1,1-1,1v1c-.89.89-2.11,2.11-3,3v3c-.5.5-1.5,1.5-2,2v1s1,1,1,1v1s1,1,1,1v1s1,1,1,1v2s1,1,1,1v1c1.6,1.6,3.4,3.4,5,5v1l4,4h1c.5.5,1.5,1.5,2,2h1c1.25,1.25,2.75,2.75,4,4h3l2,2v1s1,1,1,1v1l1,1h1s1,1,1,1h1c2.72,2.72,4.28,4.28,7,7v1s1,1,1,1v3h0s-1,0-1,0l-2,2v2l-3,3h-1s-1,1-1,1h-4s-1,1-1,1h-1s-1,1-1,1h-13s-1-1-1-1c0,0-1,1-1,1,0,0-1-1-1-1h-1v-1s-1-1-1-1v-5l-6-6h-3s-1,1-1,1h-5c-.89.89-2.11,2.11-3,3h-1l-2,2v1h0s-1,0-1,0h0v-1s1-1,1-1v-1s1-1,1-1v-1s1-1,1-1v-2s1-1,1-1v-7l-3-3h-1l-2-2v-1l-1-1h-8c-.5.5-1.5,1.5-2,2h-1c-1.6,1.6-3.4,3.4-5,5h-1c-.5.5-1.5,1.5-2,2h-3l-1,1v1l-3,3h-1c-.89.89-2.11,2.11-3,3h-1s-1,1-1,1h-1s-1,1-1,1h-1c-.5.5-1.5,1.5-2,2h-1s-1,1-1,1h-1s-1,1-1,1h-1l-2,2v1h0s-1-.99-1-1h-2l-3,3h-1s-1,1-1,1h-2s-1,1-1,1h-2s-1,1-1,1h-2s-1-1-1-1c0,0-1,1-1,1h-2s-1,1-1,1h-1s-1-1-1-1h-6v-2c-.5-.5-1.5-1.5-2-2v-1s-1-1-1-1v-1s-1-1-1-1v-7l1-1v-3l1-1v-1l1-1v-2c.5-.5,1.5-1.5,2-2v-1h0s1,0,1,0c3.64-3.64,7.36-7.36,11-11h3l1-1h1l1-1h1l1-1h1l1-1h1l1-1h6c.5-.5,1.5-1.5,2-2h4l1-1h1c.5.5,1.5,1.5,2,2h15s0,0,0,0h-1l-1,1,1,1h1s1,1,1,1h6l3-3v-3s1-1,1-1v-5s-1-1-1-1v-1c-1.6-1.6-3.4-3.4-5-5v-1l-1-1h-2s-1,1-1,1c0,0-1-1-1-1h-1s-1-1-1-1h-3s-1-1-1-1h-1s-1-1-1-1h-8s-1,1-1,1h-1s-1-1-1-1h-13s-1,1-1,1h-1s-1,1-1,1h-3s-1,1-1,1h-1s-1,1-1,1h-1s-1,1-1,1h-1s-1,1-1,1h-1s-1,1-1,1h-1s-1,1-1,1h-1c-.5.5-1.5,1.5-2,2h-1s-1,1-1,1h-1s-1,1-1,1h-1l-11,11v3l-3,3h-1l-3,3v1l-3,3v1s-1,1-1,1v1h0s-1,0-1,0c0,0-1,1-1,1,0,0-1-1-1-1h-1s-1,1-1,1h-1s-1,1-1,1h-1s-1,1-1,1h-10s-1,1-1,1h-1s-1,1-1,1h-1s-1,1-1,1h-4.17c-.4.96-.43,1.04-.83,2-.04-.04-1-1-1-1h-15s-1,1-1,1h-3s-1,1-1,1h-1c-.5.5-1.5,1.5-2,2h-2c-.5.5-1.5,1.5-2,2h-4s-1,1-1,1h-12s-1,1-1,1h-6s-1,1-1,1h-3s-1-1-1-1c0,0-1,1-1,1h-3s-1,1-1,1h-6l-3,3h-1s-1,1-1,1h-5s-1,1-1,1h-5s0,0,0,0h1l1-1v-2c.89-.89,2.11-2.11,3-3v-2h0c.89,0,2.11,0,3,0l1-1h1s1,1,1,1h1l1-1v-1l1-1v-1l2-2h1c.5-.5,1.5-1.5,2-2h1c.5-.5,1.5-1.5,2-2h2l1-1h1c.5-.5,1.5-1.5,2-2h1l1-1h1l1-1h1c1.95-1.95,4.05-4.05,6-6h4c.5-.5,1.5-1.5,2-2h1c.5-.5,1.5-1.5,2-2h1l1-1h1c1.95-1.95,4.05-4.05,6-6h2l1-1h1l1-1h1l1-1v-1l2-2h1l1-1h1c.5-.5,1.5-1.5,2-2h1c.5-.5,1.5-1.5,2-2h1c2.63-2.63,5.37-5.37,8-8h1l1-1h2l2-2v-3h0s5,0,5,0l2-2v-1l1-1v-1h0s1,0,1,0l1-1h1c1.25-1.25,2.75-2.75,4-4h1c1.25-1.25,2.75-2.75,4-4h1l4-4v-1h0s1,0,1,0l9-9h1l3-3v-2l1-1v-2l1-1h3l17-17v-1c.5-.5,1.5-1.5,2-2v-1c2.63-2.63,5.37-5.37,8-8v-1c2.29-2.29,4.71-4.71,7-7v-1l1-1v-1c.89-.89,2.11-2.11,3-3v-1l1-1v-1l1-1h1l2-2v-3l1-1v-5l1-1v-2s-1-1-1-1v-3s-1-1-1-1v-1l-3-3h-1l-1-1v-1l-1-1h-10s-1,1-1,1h-4c-.5.5-1.5,1.5-2,2h-2s-1,1-1,1h-3s-1,1-1,1h-2s-1,1-1,1h-1s-1,1-1,1h-1s-1,1-1,1h-3l-3,3h-3c-1.25,1.25-2.75,2.75-4,4h-1l-3,3h-1l-3,3v1l-1,1h-1l-3,3v1l-2,2h-1l-3,3v1l-1,1h-1c-2.29,2.29-4.71,4.71-7,7h-1l-4,4v1s-1,1-1,1v1l-7,7h-1l-2,2v1l-2,2v1l-3,3h-1l-3,3h-1l-1,1v1s-1,1-1,1v1c-1.6,1.6-3.4,3.4-5,5v1l-2,2v2l-2,2h-1l-4,4v1h0s-1,0-1,0l-4,4v1l-3,3v1l-3,3v2l-1,1h-1c-1.25,1.25-2.75,2.75-4,4h-1l-3,3v3s-1,1-1,1v3h0c-.5,0-1.5,0-2,0-1.25,1.25-2.75,2.75-4,4h-1l-2,2v1c-2.97,2.97-6.03,6.03-9,9v1l-3,3v2s-1,1-1,1v1l-1,1h-2s-1,1-1,1h-1s-1,1-1,1h-3s-1,1-1,1h-2s-1,1-1,1h-2s-1,1-1,1h-1s-1,1-1,1h-1s-1,1-1,1h-3s-1,1-1,1h-1s-1,1-1,1h-1c-.5.5-1.5,1.5-2,2h-4s-1,1-1,1h-9s-1,1-1,1h-4s-1,1-1,1h-1s-1,1-1,1h-1s-.96.96-1,1l-.83-2h-14.17s-1-1-1-1h-3s-1-1-1-1h-1s-1-1-1-1h-1s-1-1-1-1h-1s-1-1-1-1h-1s-1-1-1-1h-3l-2-2v-1l-1-1h-1l-1-1v-1l-1-1h-1l-2-2v-6s-1-1-1-1v-3l1-1v-1l1-1v-4l1-1v-1s-1-1-1-1v-2l1-1h2l1-1h1l1-1v-4c.5-.5,1.5-1.5,2-2v-2l1-1v-2c.89-.89,2.11-2.11,3-3v-1c.89-.89,2.11-2.11,3-3v-1c.5-.5,1.5-1.5,2-2v-1c.5-.5,1.5-1.5,2-2v-1h0s1,0,1,0c1.25-1.25,2.75-2.75,4-4h1l4-4v-1h0s1,0,1,0l1-1h1l1-1h1l1-1h1l1-1h1c.89-.89,2.11-2.11,3-3h6l1-1h1c.89-.89,2.11-2.11,3-3h4s1,1,1,1h14s1,1,1,1h6s1,1,1,1h1c.5.5,1.5,1.5,2,2h1s1,1,1,1l1-1h6l2-2v-2s-1-1-1-1v-2l-4-4h-3s-1-1-1-1h-1s-1-1-1-1h-1s-1-1-1-1h-4v-2l-1-1h-1s-1-1-1-1h-2s-1-1-1-1h-4s-1-1-1-1h-4s-1,1-1,1h-16s-1-1-1-1h-1l-1,1v1h0s-1,0-1,0c0,0-1,1-1,1h-1s-1-1-1-1c0,0-1,1-1,1h-5s-1,1-1,1h-1l-1,1v1l-2,2h-1s-1,1-1,1h-1s-1,1-1,1h-1c-.5.5-1.5,1.5-2,2h-1l-1,1v1l-3,3v1h0s-1,0-1,0l-1,1v1l-2,2h-1l-3,3v1l-2,2v1l-4,4h-1l-1,1v4l-3,3v1s-1,1-1,1v2s-1,1-1,1v1l-7,7v1s-1,1-1,1v2s1,1,1,1v1s-1,1-1,1v1s-1,1-1,1v1s-1,1-1,1v1l-2,2v4l-2,2v5s1,1,1,1c0,0-1,1-1,1v7s1,1,1,1v5l2,2h1v1s1,1,1,1v1s1,1,1,1v1l5,5h1l1,1v1l3,3h2v1l2,2h1s1,1,1,1h1l1,1v1l2,2h7s1,1,1,1h1s1,1,1,1h2s1,1,1,1h5s1,1,1,1h1l1-1h21l5-5h1l1-1h6l.59,1.42-2.58,2.58v1h0s-1,0-1,0c-.5.5-1.5,1.5-2,2h-1c-.5.5-1.5,1.5-2,2h-1s-1-1-1-1h-1c-.5.5-1.5,1.5-2,2,.5.5,1.5,1.5,2,2h1s0,0,0,0h-6s-1,1-1,1h-5l-1,1v1l-1,1h-4s-1-1-1-1h-2s-1-1-1-1h-5s-1-1-1-1h-6l-1,1v2.17c.96.4,1.04.43,2,.83-.04.04-1,1-1,1h-1l-1-1v-2l-2-2h-1s-1,1-1,1h-2s-1,1-1,1h-1s-1,1-1,1h-2s-1,1-1,1h-2c-.5.5-1.5,1.5-2,2h-3c-.5.5-1.5,1.5-2,2h-2c-.5.5-1.5,1.5-2,2h-2s-1,1-1,1h-1s-1,1-1,1h-4s-1,1-1,1h-2.17c-.4.96-.43,1.04-.83,2-.04-.04-1-1-1-1h-7s-1,1-1,1h-1s-1,1-1,1h-8s-1,1-1,1h-1s-1,1-1,1h-2s-1,1-1,1h-2l-5,5h-7s-1,1-1,1h-1s-1-1-1-1c0,0-1,1-1,1h-1s-1,1-1,1h-1s-1,1-1,1h-3s-1,1-1,1h-2l-2,2v3l1,1h1v1h0c-.5,0-1.5,0-2,0,0,0-1-1-1-1h-1s-1,1-1,1h-2s-1-1-1-1h-2s-1,1-1,1h-1s-1,1-1,1h-2s-1,1-1,1h-1s-1,1-1,1h-1s-1,1-1,1h-1s-1,1-1,1h-1l-8,8v1h0c-2.29,0-4.71,0-7,0-.5.5-1.5,1.5-2,2h-2l-1,1v1l-1,1h-3l-1,1v1l-1,1h-1s-1,1-1,1h-2s-1,1-1,1h-1s-1,1-1,1h-1c-.5.5-1.5,1.5-2,2h-1s-1,1-1,1h-1c-1.95,1.95-4.05,4.05-6,6h-1s-1,1-1,1h-1l-1,1v1l-7,7h-5s-1,1-1,1h-2s-1,1-1,1h-2s-1,1-1,1h-1c-.5.5-1.5,1.5-2,2h-1l-1,1v1l-1,1h-1l-1,1v1c-.5.5-1.5,1.5-2,2v2s1,1,1,1c0,0-1,1-1,1v1h0s-1,0-1,0c-.5.5-1.5,1.5-2,2h-1s-1,1-1,1h-2l-2,2v1h0s-1,0-1,0c0,0-1,1-1,1h-1l-2,2v1c-.5.5-1.5,1.5-2,2v4h0s-3,0-3,0l-4,4v1l-1,1h-1l-2,2v1s-1,1-1,1v2h0s-1,0-1,0l-8,8v1c-.5.5-1.5,1.5-2,2v1s-1,1-1,1v1c-.89.89-2.11,2.11-3,3v1s-1,1-1,1v1s-1,1-1,1v1c-1.25,1.25-2.75,2.75-4,4v3c-.5.5-1.5,1.5-2,2v3s-1,1-1,1v1s-1,1-1,1v1s-1,1-1,1v1s-1,1-1,1v1s-1,1-1,1v9s-1,1-1,1v6s1,1,1,1v1s1,1,1,1v2s1,1,1,1v1s1,1,1,1v5s1,1,1,1v1l1,1h1v1l2,2h1s1,1,1,1h1c.5.5,1.5,1.5,2,2h1s1,1,1,1h1s1,1,1,1h1s1,1,1,1h2s1,1,1,1h2s1-1,1-1h5c.5.5,1.5,1.5,2,2h10s1-1,1-1h2s1-1,1-1h5c.5-.5,1.5-1.5,2-2h2s1-1,1-1h1s1-1,1-1h2s1-1,1-1h1s1-1,1-1h5c.89-.89,2.11-2.11,3-3h1s1-1,1-1h2c.5-.5,1.5-1.5,2-2h1s1-1,1-1h1s1-1,1-1h1c.5-.5,1.5-1.5,2-2h1s1-1,1-1h1c.5-.5,1.5-1.5,2-2h1s1-1,1-1h1s1-1,1-1h1s1-1,1-1h1s1-1,1-1h1l4-4v-1h0s1,0,1,0c0,0,1-1,1-1h1s1-1,1-1h1c.5-.5,1.5-1.5,2-2h1s1-1,1-1h1c2.29-2.29,4.71-4.71,7-7h1c.5-.5,1.5-1.5,2-2h1c1.25-1.25,2.75-2.75,4-4h2s1-1,1-1h1l2-2v-1s1-1,1-1v-2l1-1h2s1-1,1-1h1c1.95-1.95,4.05-4.05,6-6h1l3-3v-1h0s1,0,1,0c1.95-1.95,4.05-4.05,6-6h2s1-1,1-1h1l4-4v-1l2-2h1c.5-.5,1.5-1.5,2-2h1l1-1v-1l3-3h1l2-2v-1c.5-.5,1.5-1.5,2-2v-1c.5-.5,1.5-1.5,2-2v-1h0s4,0,4,0l2-2v-1l2-2h1c1.95-1.95,4.05-4.05,6-6h1c1.25-1.25,2.75-2.75,4-4h1l1-1v-3l1-1h4s1-1,1-1h1l1-1v-1c1.6-1.6,3.4-3.4,5-5v-1l1-1h2c3.3-3.3,6.7-6.7,10-10h1l5-5v-2l1-1h2c1.6-1.6,3.4-3.4,5-5h1l2-2v-1s1-1,1-1v-1l2-2h1l1-1h2l1-1v-1l10-10h1l4-4v-1l6-6h1l1-1v-1c.5-.5,1.5-1.5,2-2v-1h0s1,0,1,0c.5-.5,1.5-1.5,2-2h1l3-3v-1c3.5-3.5,5.5-5.5,9-9h4l1-1h1l1-1h2l1-1h2c.5-.5,1.5-1.5,2-2h1l1-1v-1h0s1,0,1,0h0s-1,1-1,1l1,1h1c.5-.5,1.5-1.5,2-2h4l1-1h5c.5-.5,1.5-1.5,2-2h2l1-1h12s1,1,1,1h1l2-2v-2l1-1h9s1,1,1,1h2l1-1h4l1-1h2l1-1v-1l1-1v-1h0c.89,0,2.11,0,3,0l1-1h5l1-1h2s1,1,1,1h4l1-1v-2h0c2.97,0,6.03,0,9,0l1-1h5l1-1h2l1-1h1l1-1h12s1,1,1,1h1v4s-1,1-1,1c0,0,1,1,1,1v2s1,1,1,1v1s1,1,1,1v3s-1,1-1,1v2l3,3h2l1,1v1l5,5v1l1,1h1s1,1,1,1h1s1,1,1,1h3c.5.5,1.5,1.5,2,2h1s1,1,1,1h10c.89-.89,2.11-2.11,3-3h6l1-1h1c.89-.89,2.11-2.11,3-3h3l1-1h1l1-1h1c.5-.5,1.5-1.5,2-2h1c.5-.5,1.5-1.5,2-2h3l1-1h1c.89-.89,2.11-2.11,3-3h1l1-1h2s1-1,1-1h1l1-1v-3l2-2h1s1-1,1-1h1c-.5.5-1.5,1.5-2,2v5s1,1,1,1v3l5,5h1s1,1,1,1h1s1,1,1,1h9l5-5v-2s1-1,1-1v-1h0s1,0,1,0h0v1s1,1,1,1v1c.5.5,1.5,1.5,2,2v1l2,2h1s1,1,1,1h1v1l1,1h1s1,1,1,1h2s1,1,1,1h1s1,1,1,1h1c.5.5,1.5,1.5,2,2h8c.5.5,1.5,1.5,2,2h2s1,1,1,1h5c.5-.5,1.5-1.5,2-2h6s1-1,1-1h1s1-1,1-1h2s1-1,1-1h2s1-1,1-1h1s1-1,1-1h1s1-1,1-1h1c.5-.5,1.5-1.5,2-2h1s1-1,1-1h6s1,1,1,1h1s1,1,1,1h1c.5.5,1.5,1.5,2,2h13s1,1,1,1h6s1-1,1-1h5s1-1,1-1h3s1-1,1-1h1c1.25-1.25,2.75-2.75,4-4h2s1-1,1-1h1s1-1,1-1h1c1.25-1.25,2.75-2.75,4-4h1l3-3v-1s1-1,1-1v-1c.89-.89,2.11-2.11,3-3v-2h0s1,0,1,0c0,0,1-1,1-1h1s1,1,1,1h1s1-1,1-1h1s1-1,1-1h1s1-1,1-1h1s1-1,1-1h2s1-1,1-1h1s1-1,1-1h1s1-1,1-1h1s1-1,1-1h1s1-1,1-1h1s1-1,1-1h1s1-1,1-1h3c.5-.5,1.5-1.5,2-2h1c.5-.5,1.5-1.5,2-2h1s1-1,1-1h1s1-1,1-1h1s1-1,1-1h1s1-1,1-1h4c1.95-1.95,4.05-4.05,6-6h1c1.25-1.25,2.75-2.75,4-4h1c1.95-1.95,4.05-4.05,6-6h4l1,1v2s-1,1-1,1v6s-1,1-1,1v3s-1,1-1,1v15s-1,1-1,1v2c.5.5,1.5,1.5,2,2v5s1,1,1,1v3s1,1,1,1v1s1,1,1,1v3l2,2h1c2.97,2.97,6.03,6.03,9,9h3s1,1,1,1h2s1-1,1-1h5s1-1,1-1h2s1-1,1-1h1c.5-.5,1.5-1.5,2-2h1s1-1,1-1h2c.89-.89,2.11-2.11,3-3h1l3-3v-1c1.95-1.95,4.05-4.05,6-6v-1h0s1,0,1,0c1.25-1.25,2.75-2.75,4-4,0,0,0,0,0,0,.5-.5,1.5-1.5,2-2,0,0,0,0,0,0v-2s1-1,1-1v-1l-2-2h-1s-1-1-1-1c-2.26,0-2.02-.24-4.21-.25l-.84.3-1.93,1.61c-6.19,6.11-3.42,3.54-5.31,5.2l-2.41,1.38c-.5.5-2.81.26-3.31.76h-10l-5-5v-2c-.5-.5-1.5-1.5-2-2v-1s-1-1-1-1v-6s1-1,1-1v-11s1-1,1-1v-15s1-1,1-1v-2c1.25-1.25,2.75-2.75,4-4v-1c1.25-1.25,2.75-2.75,4-4v-1s1-1,1-1v-3h0s1,0,1,0l3-3v-3c1.25-1.25,2.75-2.75,4-4v-2s1-1,1-1v-1c.5-.5,1.5-1.5,2-2v-1h0s1,0,1,0l7-7v-1s1-1,1-1v-1s1-1,1-1v-1s1-1,1-1v-1l1-1h1l3-3v-1s1-1,1-1v-1c.5-.5,1.5-1.5,2-2v-1c.5-.5,1.5-1.5,2-2v-2c1.6-1.6,3.4-3.4,5-5v-1l1-1h1l1-1v-1s1-1,1-1v-1s1-1,1-1v-3s1-1,1-1v-1c.5-.5,1.5-1.5,2-2v-1s1-1,1-1v-1s1-1,1-1v-2s1-1,1-1v-1c.5-.5,1.5-1.5,2-2v-2c.89-.89,2.11-2.11,3-3v-1c.5-.5,1.5-1.5,2-2v-1s1-1,1-1v-1s1-1,1-1v-2s1-1,1-1v-1s1-1,1-1v-2c.5-.5,1.5-1.5,2-2v-1s1-1,1-1v-1s1-1,1-1v-3s-1-1-1-1v-2s1-1,1-1v-1s1-1,1-1v-14l-1-1ZM918.67,697.78l6-6v-1l1-1v-1l7-7h1l1-1v-1l5-5v-1l6-6v-1l1-1h1l7-7v-2l6-6v-1l7-7v-1h0s1,0,1,0l6-6v-1l2-2h1l4-4v-1h0s1,0,1,0l1-1h1l1-1v-1l3-3h1l1-1h1l1-1h1l1-1h2l3-3h1l1-1h1l1-1v-1l1-1h1l1-1h1l1-1h1l1-1h1l2-2h7c-.5.5-1.5,1.5-2,2.01h-1l-1,1v4l-3,3v1l-9,9v1l-1,1v2l1,1-1,1h-3l-2,2v1l-1,1v2h0c-1.6,0-3.4,0-5,0l-1,1v2l-1,1h-1l-4,4h-1l-3,3v1l-2,2v1l-1,1v1h0s-1,0-1,0l-1,1h-3l-5,5v1h0s-1,0-1,0l-5,5h-1l-6,6h-1l-1,1h-1l-1,1h-1l-2,2v1l-4,4h-3l-7,7v1h0c-1.25,0-2.75,0-4,0l-1,1h-1l-5,5h-1l-1,1h-1l-1,1h-1v-1ZM821.67,780.78v2l-1,1v1l-1,1h-2l-6,6h-1l-4,4v1h0c-.5,0-1.5,0-2,0l-1,1v1l1,1h1c-.5.5-1.5,1.5-2,2.01h-1l-1,1h-2l-1,1h-2l-5,5v1l1,1v1l-2,2h-1l-1,1v1l-4,4h-1l-3,3h-1l-1,1h-1l-2,2v3l-3,3h-2l-1,1h-1l-4,4h-1l-1,1h-1l-1,1h-1l-1,1h-1l-4,4v2l1,1h2c-.89.9-2.11,2.11-3,3.01h-1l-1,1-1-1h-1l-4,4h-1l-1,1v2l-1,1h-1l-1,1h-1l-1,1h-1l-2,2v2h0s-1,0-1,0l-1,1h-2l-1,1h-1l-4,4v1l-1,1v2h0s-1,0-1,0l-2,2h-1l-2,2v1l-3,3h-1l-3,3h-1l-4,4v1h0s-1,0-1,0l-1,1h-1l-2,2h-1l-1,1h-4l-2,2v1h0s-1,0-1,0l-3,3v5c-.5.5-1.5,1.5-2,2h-6s-1,1-1,1h-1s-1,1-1,1h-1l-1,1v2s1,1,1,1v1h0s-1,0-1,0c0,0-1,1-1,1h-1c-.89.89-2.11,2.11-3,3h-2c-2.29,2.29-4.71,4.71-7,7h-1c-.5.5-1.5,1.5-2,2h-1s-1,1-1,1h-1s-1,1-1,1h-1s-1,1-1,1h-3c-.89.89-2.11,2.11-3,3v2c-.5.5-1.5,1.5-2,2v1s-1,1-1,1h-8c-.5.5-1.5,1.5-2,2v1s-1,1-1,1v1c-.5.5-1.5,1.5-2,2h-2s-1,1-1,1h-1s-1,1-1,1h-1s-1,1-1,1h-1s-1,1-1,1h-5s-1,1-1,1h-5s-1,1-1,1h-1s-1,1-1,1h-2s-1,1-1,1h-1s-1,1-1,1h-1s-1,1-1,1h-2s-1,1-1,1h-1s-1,1-1,1h-1s-1-1-1-1h-9s-1-1-1-1h-2c-.5-.5-1.5-1.5-2-2h-1v-1c-.89-.89-2.11-2.11-3-3v-1s-1-1-1-1v-2s-1-1-1-1v-1s-1-1-1-1v-2s1-1,1-1v-1s1-1,1-1c0,0-1-1-1-1v-2s1-1,1-1v-4s1-1,1-1v-1s1-1,1-1v-2c.5-.5,1.5-1.5,2-2v-2c.5-.5,1.5-1.5,2-2v-2c.5-.5,1.5-1.5,2-2v-1c.5-.5,1.5-1.5,2-2v-2c.89-.89,2.11-2.11,3-3v-1c2.29-2.29,4.71-4.71,7-7v-1l3-3h1l2-2v-1l4-4h1l4-4v-1l3-3h1l2-2h2l1-1v-2l1-1h1l1-1h1l4-4h1l2-2h2l5-5h1l1-1h1l2-2h1l1-1h1l7-7h1l2-2h1l1-1h1l4-4h2l2-2h1l2-2h1l1-1h1l2-2h1l1-1h1l1-1h1l1-1h1l1-1h2l3-3h1l1-1h2l1-1h1l1-1h1l1-1h1l1-1h2l2-2h1l1-1h1l2-2h1l1-1h1l1-1h1l1-1h2l1-1h1l1-1h2l1-1h1l2-2h2l1-1h1l1-1h1l1-1h1l1-1h1l1-1h3l1-1h2l1-1h1l1-1h1l4-4h1l1,1,1-1h8l2-2h5l1-1h2l1-1h2l1-1h2l1-1h2l1-1h1l1-1h2l1-1h2l1-1h5l2-2h1l1-1h4l2-2h1l2-2h1l1-1v-1h0s1,0,1,0l1-1h9l1-1,1,1v1ZM1352.67,578.78v1s-1,1-1,1v13c-.5.5-1.5,1.5-2,2v1c-.5.5-1.5,1.5-2,2v1s-1,1-1,1v1s-1,1-1,1v1c-.5.5-1.5,1.5-2,2v1s-1,1-1,1v1s-1,1-1,1v1s-1,1-1,1v1s-1,1-1,1c0,0,1,1,1,1v1c-1.95,1.95-4.05,4.05-6,6v2c-.5.5-1.5,1.5-2,2v1s-1,1-1,1v2s-1,1-1,1v1s-1,1-1,1v1s-1,1-1,1v1s-1,1-1,1v4c-.5.5-1.5,1.5-2,2h-2c-.89.89-2.11,2.11-3,3v1c-.89.89-2.11,2.11-3,3v1c-.89.89-2.11,2.11-3,3v3s-1,1-1,1h0v-3s1-1,1-1v-1s1-1,1-1v-1s1-1,1-1v-1s-1-1-1-1v-1s1-1,1-1v-1s1-1,1-1v-1s1-1,1-1v-2s1-1,1-1v-2c.5-.5,1.5-1.5,2-2,0,0,1,1,1,1l1-1v-4s-1-1-1-1v-1c.5-.5,1.5-1.5,2-2v-4s1-1,1-1v-3c.89-.89,2.11-2.11,3-3v-1c.5-.5,1.5-1.5,2-2v-6c.89-.89,2.11-2.11,3-3v-1c.89-.89,2.11-2.11,3-3v-1s1-1,1-1v-2s1-1,1-1v-1s1-1,1-1v-1s1-1,1-1v-1c2.97-2.97,6.03-6.03,9-9v-3h0c.89,0,2.11,0,3,0h0v1Z"/>
</svg>