<?xml version="1.0" encoding="UTF-8"?>
<svg id="Layer_1" data-name="Layer 1" xmlns="http://www.w3.org/2000/svg" viewBox="0 0 301.69 77.87">
  <g>
    <path fill="#231f20" d="M22.72.34C10.5.34.55,9.98.55,21.83v55.68h44.36V21.83C44.9,9.98,34.95.34,22.72.34ZM12.27,70.28c-.34.16-.71.25-1.11.26-.95-.03-1.81-.54-2.25-1.36-.19-.36-.56-.58-.96-.58h0c-.4,0-.77.22-.96.58-.46.84-1.36,1.36-2.35,1.36-.13,0-.27,0-.4-.03-.65-.1-1.23-.42-1.64-.89v-2.83c.54.26,1.13.42,1.75.45,1.32.08,2.6-.4,3.53-1.26.86.79,2.01,1.27,3.22,1.27.02,0,.04,0,.06,0,.02,0,.04,0,.06,0h.03c.1,0,.21-.01.31-.02,0,0,.02,0,.02,0,.29-.02.57-.08.84-.15l-.14,3.18ZM12.51,64.83c-.4.24-.86.38-1.35.39-.95-.03-1.81-.54-2.25-1.36-.19-.36-.56-.58-.97-.58s-.77.22-.96.58c-.48.89-1.48,1.43-2.51,1.36-.74-.04-1.41-.38-1.87-.91v-2.82c.23.11.48.21.73.28.43.12.86.18,1.31.18,1.23,0,2.38-.47,3.24-1.27.86.79,2.01,1.27,3.22,1.27.02,0,.04,0,.06,0,.02,0,.04,0,.06,0h.03c.1,0,.2-.01.31-.02,0,0,.02,0,.03,0,.37-.03.74-.1,1.09-.21l-.14,3.12ZM2.59,75.47v-3.34c.42.2.87.35,1.34.42.23.03.46.05.69.05,1.23,0,2.38-.47,3.24-1.27.86.79,2.01,1.27,3.22,1.27.02,0,.04,0,.06,0,.02,0,.04,0,.06,0h.03c.1,0,.21-.01.31-.02,0,0,.02,0,.02,0,.2-.01.4-.04.6-.08l-.13,2.98H2.59ZM14.09,75.33l1.23-27.07h14.39l.65,14.4c-1.53,1.41-2.96,3.18-4.1,5.43-1.55,3.04-2.12,5.17-2.39,7.25h-9.78ZM42.86,75.47h-2.84c.01-.96.14-2.32.41-3.42.26-1.07.7-2.17,1.26-3.18.34-.63.74-1.22,1.18-1.78v8.39ZM42.86,64.05c-1.19,1.12-2.19,2.41-2.97,3.82-.64,1.17-1.14,2.44-1.45,3.68-.35,1.41-.45,2.96-.46,3.91h-4.86c.19-1.76.72-3.99,2.04-6.24,2.22-3.78,5.58-5.7,7.7-6.6v1.43ZM42.86,60.43c-2.26.83-6.65,2.97-9.47,7.76-1.29,2.2-2.08,4.69-2.33,7.28h-5.15c.25-1.83.77-3.73,2.16-6.45,3.76-7.39,10.76-9.04,14.13-9.83.24-.06.46-.11.66-.16v1.4ZM42.86,56.91c-.26.08-.66.17-1.12.28-2.07.49-5.83,1.38-9.4,3.88l-.6-13.15h2.7c.43,0,.79-.29.88-.71.08-.41-.13-.81-.52-.97-1.82-.77-3.61-1.98-5.31-3.59,1.83-1.52,2.87-3.65,2.87-5.92,0-2.92-3.1-6.36-5.59-9.13-.67-.75-1.31-1.46-1.79-2.06l-.17-2.44c.62-.53.98-1.28.98-2.07,0-.92-.48-1.77-1.28-2.3l-.08-1.22c.34-.37.53-.85.53-1.34,0-.61-.28-1.17-.75-1.55l-.56-4.66c-.06-.46-.16-1.31-.88-1.31-.73,0-.83.85-.88,1.31l-.56,4.66c-.48.39-.75.95-.75,1.55,0,.5.19.97.53,1.34l-.08,1.22c-.8.53-1.28,1.37-1.28,2.3,0,.79.36,1.54.98,2.07l-.17,2.44c-.48.6-1.12,1.31-1.79,2.06-2.49,2.77-5.59,6.22-5.59,9.13,0,2.21.99,4.3,2.74,5.81-1.73,1.66-3.55,2.9-5.41,3.69-.39.17-.6.57-.52.97.09.42.45.71.88.71h2.44l-.52,11.41c-.45.35-1.01.55-1.6.56-.95-.03-1.81-.54-2.25-1.36-.19-.36-.56-.58-.97-.58s-.77.22-.96.58c-.46.84-1.36,1.36-2.35,1.36-.25,0-.51-.04-.75-.1-.51-.15-.96-.44-1.29-.82V21.83C2.59,11.11,11.62,2.39,22.72,2.39s20.13,8.72,20.13,19.44v35.08Z"/>
    <path fill="#231f20" d="M26.48,55.05c0-2.8-1.69-4.99-3.84-4.99s-3.84,2.19-3.84,4.99v4.54h7.68v-4.54ZM24.43,57.54h-3.59v-2.49c0-1.74.95-2.95,1.79-2.95s1.79,1.21,1.79,2.95v2.49Z"/>
  </g>
  <g>
    <path fill="#231f20" d="M72.06,42.93c-.25,0-.45-.09-.62-.26-.17-.17-.26-.38-.26-.62v-23.98c0-.25.09-.45.26-.62s.38-.26.62-.26h3.42c.25,0,.45.09.62.26.17.17.26.38.26.62v20.48h11.66c.27,0,.49.09.66.26.17.17.26.39.26.66v2.57c0,.25-.09.45-.26.62s-.39.26-.66.26h-15.96Z"/>
    <path fill="#231f20" d="M92.32,42.93c-.2,0-.37-.07-.53-.22-.16-.15-.24-.33-.24-.55,0-.1.02-.21.07-.33l8.86-23.72c.07-.25.21-.46.42-.64.21-.18.5-.28.86-.28h4.01c.37,0,.65.09.85.28.2.18.34.4.44.64l8.86,23.72c.02.12.04.23.04.33,0,.22-.07.4-.22.55-.15.15-.32.22-.51.22h-3.2c-.34,0-.59-.08-.75-.24-.16-.16-.26-.31-.31-.46l-1.73-4.49h-10.92l-1.73,4.49c-.05.15-.15.3-.31.46-.16.16-.41.24-.75.24h-3.2ZM99.6,33.52h8.35l-4.19-11.36-4.16,11.36Z"/>
    <path fill="#231f20" d="M120.2,42.93c-.25,0-.45-.09-.62-.26-.17-.17-.26-.38-.26-.62v-23.94c0-.27.09-.49.26-.66s.38-.26.62-.26h2.83c.34,0,.59.08.75.24.16.16.26.28.31.35l10.59,16.47v-16.14c0-.27.08-.49.24-.66.16-.17.37-.26.64-.26h3.09c.27,0,.49.09.66.26s.26.39.26.66v23.9c0,.27-.09.49-.26.66-.17.17-.38.26-.62.26h-2.87c-.34,0-.59-.09-.74-.26-.15-.17-.26-.28-.33-.33l-10.55-16.11v15.81c0,.25-.09.45-.26.62s-.39.26-.66.26h-3.09Z"/>
    <path fill="#231f20" d="M154.21,43.3c-2.26,0-4.17-.39-5.75-1.18-1.58-.79-2.81-1.92-3.68-3.4-.87-1.48-1.34-3.25-1.42-5.31-.02-1.05-.04-2.19-.04-3.4s.01-2.36.04-3.44c.07-2.04.54-3.78,1.42-5.22.87-1.45,2.11-2.56,3.71-3.35,1.61-.78,3.51-1.18,5.72-1.18,1.79,0,3.36.24,4.71.72,1.35.48,2.47,1.09,3.36,1.84.9.75,1.57,1.55,2.02,2.41.45.86.69,1.66.72,2.39.02.22-.04.4-.18.55-.15.15-.34.22-.59.22h-3.79c-.25,0-.43-.05-.55-.15-.12-.1-.23-.24-.33-.44-.2-.51-.5-1.02-.92-1.53-.42-.5-.98-.93-1.69-1.27-.71-.34-1.63-.51-2.76-.51-1.67,0-3,.44-3.99,1.32s-1.53,2.34-1.6,4.38c-.07,2.13-.07,4.29,0,6.47.07,2.08.62,3.58,1.64,4.49,1.02.91,2.36,1.36,4.03,1.36,1.1,0,2.09-.2,2.96-.59.87-.39,1.56-1.01,2.06-1.84s.75-1.9.75-3.2v-1.14h-4.49c-.25,0-.45-.08-.62-.26-.17-.17-.26-.39-.26-.66v-1.95c0-.27.09-.49.26-.66s.38-.26.62-.26h8.79c.27,0,.48.09.64.26.16.17.24.39.24.66v3.86c0,2.06-.45,3.84-1.34,5.33-.89,1.5-2.17,2.65-3.82,3.46-1.65.81-3.61,1.21-5.87,1.21Z"/>
    <path fill="#231f20" d="M169.73,42.93c-.25,0-.45-.09-.62-.26-.17-.17-.26-.38-.26-.62v-23.94c0-.27.09-.49.26-.66s.38-.26.62-.26h15.96c.27,0,.49.09.66.26.17.17.26.39.26.66v2.57c0,.27-.09.48-.26.64-.17.16-.39.24-.66.24h-11.8v6.99h11.07c.27,0,.49.09.66.26.17.17.26.39.26.66v2.57c0,.25-.09.45-.26.62-.17.17-.39.26-.66.26h-11.07v9.12c0,.25-.09.45-.26.62s-.39.26-.66.26h-3.24Z"/>
    <path fill="#231f20" d="M190.73,42.93c-.25,0-.45-.09-.62-.26-.17-.17-.26-.38-.26-.62v-23.94c0-.27.09-.49.26-.66s.38-.26.62-.26h16.18c.27,0,.49.09.66.26.17.17.26.39.26.66v2.43c0,.25-.09.45-.26.62s-.39.26-.66.26h-12.1v6.51h11.29c.27,0,.49.08.66.24s.26.37.26.64v2.28c0,.27-.09.48-.26.64s-.39.24-.66.24h-11.29v6.73h12.39c.27,0,.49.09.66.26.17.17.26.39.26.66v2.43c0,.25-.09.45-.26.62s-.39.26-.66.26h-16.47Z"/>
    <path fill="#231f20" d="M213.23,42.93c-.25,0-.45-.09-.62-.26-.17-.17-.26-.38-.26-.62v-23.98c0-.25.09-.45.26-.62s.38-.26.62-.26h3.42c.25,0,.45.09.62.26.17.17.26.38.26.62v20.48h11.66c.27,0,.49.09.66.26.17.17.26.39.26.66v2.57c0,.25-.09.45-.26.62s-.39.26-.66.26h-15.96Z"/>
    <path fill="#231f20" d="M234.19,42.93c-.25,0-.45-.09-.62-.26-.17-.17-.26-.38-.26-.62v-23.94c0-.27.09-.49.26-.66s.38-.26.62-.26h8.97c2.48,0,4.52.38,6.12,1.14,1.61.76,2.82,1.89,3.64,3.38.82,1.5,1.24,3.32,1.27,5.48.05,1.08.07,2.04.07,2.87s-.03,1.78-.07,2.83c-.05,2.28-.47,4.16-1.25,5.64-.79,1.48-1.97,2.59-3.55,3.31-1.58.72-3.6,1.08-6.05,1.08h-9.16ZM238.42,38.71h4.74c1.37,0,2.49-.2,3.35-.59.86-.39,1.49-1.02,1.89-1.89s.62-2.02.64-3.44c.02-.74.04-1.38.06-1.93.01-.55.01-1.1,0-1.66-.01-.55-.03-1.18-.06-1.89-.05-2.01-.55-3.49-1.51-4.45-.96-.96-2.48-1.43-4.56-1.43h-4.56v17.28Z"/>
    <path fill="#231f20" d="M258.94,42.93c-.25,0-.45-.09-.62-.26-.17-.17-.26-.38-.26-.62v-23.94c0-.27.09-.49.26-.66s.38-.26.62-.26h16.18c.27,0,.49.09.66.26.17.17.26.39.26.66v2.43c0,.25-.09.45-.26.62s-.39.26-.66.26h-12.1v6.51h11.29c.27,0,.49.08.66.24s.26.37.26.64v2.28c0,.27-.09.48-.26.64s-.39.24-.66.24h-11.29v6.73h12.39c.27,0,.49.09.66.26.17.17.26.39.26.66v2.43c0,.25-.09.45-.26.62s-.39.26-.66.26h-16.47Z"/>
    <path fill="#231f20" d="M281.45,42.93c-.25,0-.45-.09-.62-.26-.17-.17-.26-.38-.26-.62v-23.94c0-.27.09-.49.26-.66s.38-.26.62-.26h9.52c2.97,0,5.31.69,7.02,2.06s2.57,3.37,2.57,5.99c0,1.81-.45,3.32-1.34,4.52-.9,1.2-2.09,2.07-3.59,2.61l5.37,9.38c.07.15.11.28.11.4,0,.22-.08.4-.24.55-.16.15-.34.22-.53.22h-3.35c-.42,0-.74-.11-.96-.33s-.39-.44-.52-.66l-4.74-8.71h-5.11v8.83c0,.25-.08.45-.24.62-.16.17-.37.26-.64.26h-3.35ZM285.68,29.07h5.19c1.5,0,2.61-.34,3.35-1.01.74-.67,1.1-1.62,1.1-2.85s-.36-2.19-1.08-2.89c-.72-.7-1.85-1.05-3.37-1.05h-5.19v7.8Z"/>
  </g>
  <g>
    <path fill="#231f20" d="M69.91,68.93v-12.55h4.79c1.28,0,2.28.28,2.98.85.71.57,1.06,1.38,1.06,2.44,0,.78-.23,1.44-.7,1.96s-1.1.87-1.9,1.03v-.25c.59.06,1.11.22,1.54.49.43.27.77.62,1,1.05.23.43.35.95.35,1.56,0,.74-.16,1.36-.48,1.87-.32.51-.79.9-1.4,1.16s-1.35.39-2.22.39h-5.02ZM70.98,62.11h3.6c1,0,1.76-.21,2.28-.61s.78-1.01.78-1.79-.26-1.38-.78-1.79c-.52-.41-1.28-.61-2.28-.61h-3.6v4.81ZM70.98,68.01h3.86c.42,0,.79-.03,1.11-.1s.61-.16.85-.29.45-.29.61-.49c.17-.2.29-.43.37-.69.08-.27.12-.57.12-.9s-.04-.65-.12-.92c-.08-.27-.21-.5-.37-.69-.17-.2-.37-.36-.61-.49s-.53-.23-.85-.29-.7-.1-1.11-.1h-3.86v4.97Z"/>
    <path fill="#231f20" d="M81.85,68.93v-12.55h1.09v12.55h-1.09Z"/>
    <path fill="#231f20" d="M91.32,69.07c-.85,0-1.63-.15-2.32-.45s-1.29-.72-1.77-1.28c-.49-.56-.86-1.23-1.12-2.02-.26-.79-.39-1.68-.39-2.68s.13-1.89.38-2.68c.25-.79.63-1.46,1.11-2.01s1.08-.98,1.77-1.27,1.47-.45,2.34-.45,1.65.15,2.34.44,1.29.71,1.78,1.27c.49.56.87,1.23,1.12,2.02.25.79.38,1.68.38,2.66s-.13,1.89-.39,2.69c-.26.8-.63,1.47-1.12,2.03-.49.56-1.08.98-1.77,1.28s-1.47.45-2.34.45ZM91.32,68.08c.95,0,1.76-.21,2.42-.64.66-.43,1.17-1.04,1.52-1.85.35-.81.53-1.79.53-2.94s-.17-2.13-.53-2.93c-.35-.8-.85-1.42-1.51-1.84-.66-.43-1.47-.64-2.43-.64s-1.74.21-2.4.64c-.67.43-1.17,1.04-1.52,1.85-.35.81-.52,1.78-.52,2.92s.17,2.11.52,2.92c.35.81.86,1.43,1.52,1.86.67.43,1.47.65,2.4.65Z"/>
    <path fill="#231f20" d="M104.2,68.93v-12.55h7.73v.94h-6.66v4.77h6.28v.94h-6.28v4.95h6.66v.94h-7.73Z"/>
    <path fill="#231f20" d="M114.45,68.93v-12.55h4.74c1.33,0,2.35.31,3.06.93s1.07,1.5,1.07,2.63c0,.74-.16,1.37-.48,1.9-.32.53-.79.93-1.42,1.2s-1.37.41-2.23.41l.2-.23h.25c.45,0,.85.12,1.18.36.34.24.64.62.92,1.16l2.28,4.2h-1.19l-2.17-4.02c-.2-.38-.42-.67-.65-.87s-.5-.34-.81-.42-.68-.12-1.1-.12h-2.55v5.43h-1.09ZM115.54,62.58h3.51c1.06,0,1.85-.22,2.38-.67s.79-1.1.79-1.97-.26-1.5-.79-1.95c-.53-.45-1.32-.67-2.38-.67h-3.51v5.25Z"/>
    <path fill="#231f20" d="M126.22,68.93v-12.55h4.04c1.34,0,2.47.24,3.4.71s1.63,1.18,2.12,2.11c.49.93.73,2.08.73,3.45s-.24,2.51-.73,3.44c-.49.93-1.19,1.64-2.12,2.12-.93.48-2.06.72-3.4.72h-4.04ZM127.3,67.97h2.87c1.72,0,3.01-.45,3.87-1.34.86-.89,1.29-2.22,1.29-3.99s-.43-3.09-1.29-3.98c-.86-.88-2.15-1.33-3.87-1.33h-2.87v10.63Z"/>
    <path fill="#231f20" d="M137.2,68.93l5.47-12.55h.98l5.45,12.55h-1.14l-1.55-3.61.59.27h-7.71l.61-.27-1.53,3.61h-1.16ZM143.13,57.73l-3.03,7.12-.41-.21h6.89l-.37.21-3.04-7.12h-.04ZM141.03,54.46v-1.3h1.3v1.3h-1.3ZM144,54.46v-1.3h1.3v1.3h-1.3Z"/>
    <path fill="#231f20" d="M151.21,68.93v-12.55h4.74c.89,0,1.64.14,2.26.43.62.29,1.08.7,1.4,1.26.31.55.47,1.23.47,2.02s-.16,1.45-.47,2c-.31.55-.78.97-1.4,1.26-.62.29-1.37.44-2.26.44h-3.65v5.15h-1.09ZM152.3,62.83h3.56c1.03,0,1.81-.23,2.33-.69s.78-1.15.78-2.05-.26-1.59-.78-2.06-1.3-.7-2.33-.7h-3.56v5.5Z"/>
    <path fill="#231f20" d="M162.32,68.93v-12.55h7.55v.94h-6.46v4.79h6.11v.94h-6.11v5.88h-1.09Z"/>
    <path fill="#231f20" d="M171.97,68.93v-12.55h7.73v.94h-6.66v4.77h6.28v.94h-6.28v4.95h6.66v.94h-7.73Z"/>
    <path fill="#231f20" d="M182.22,68.93v-12.55h1.09v11.57h6.55v.98h-7.64Z"/>
  </g>
  <g>
    <path fill="#231f20" d="M230.71,69.13c-.43,0-.85-.04-1.25-.12-.41-.08-.79-.21-1.14-.37-.35-.17-.65-.37-.9-.6l.39-.8c.3.24.61.43.93.58s.65.26.99.33.68.11,1.02.11c.72,0,1.28-.14,1.66-.41.38-.27.57-.64.57-1.1,0-.38-.12-.67-.37-.88-.24-.21-.64-.38-1.18-.51l-1.55-.36c-.75-.17-1.3-.44-1.66-.81-.36-.37-.53-.86-.53-1.45,0-.51.13-.96.4-1.33.27-.38.65-.67,1.14-.88.49-.21,1.06-.31,1.7-.31.39,0,.77.04,1.14.13s.71.22,1.01.38.58.37.8.62l-.43.8c-.23-.22-.48-.42-.76-.57-.28-.15-.57-.27-.86-.35s-.61-.12-.93-.12c-.69,0-1.22.14-1.59.43-.37.28-.56.67-.56,1.16,0,.37.12.66.35.89s.6.4,1.09.52l1.55.36c.77.18,1.35.44,1.73.79.38.35.57.82.57,1.42,0,.51-.14.95-.41,1.33-.27.37-.66.66-1.16.85-.5.2-1.09.29-1.76.29Z"/>
    <path fill="#231f20" d="M240.17,69.13c-.89,0-1.66-.18-2.3-.53-.64-.36-1.13-.87-1.48-1.53-.34-.66-.52-1.45-.52-2.37s.17-1.69.52-2.36c.34-.67.82-1.2,1.43-1.58.61-.38,1.31-.57,2.11-.57s1.43.17,1.97.51.96.82,1.25,1.44c.29.62.44,1.37.44,2.25v.5h-6.92v-.8h6.25l-.28.23c0-1.02-.23-1.82-.68-2.39-.45-.58-1.12-.86-1.99-.86-.65,0-1.2.15-1.66.45-.45.3-.79.72-1.01,1.25-.23.53-.34,1.14-.34,1.82v.09c0,.76.12,1.4.37,1.93.24.53.61.93,1.09,1.2s1.06.41,1.73.41c.53,0,1.04-.08,1.5-.25s.93-.45,1.38-.84l.43.82c-.38.36-.87.64-1.46.85-.59.21-1.2.32-1.82.32Z"/>
    <path fill="#231f20" d="M245.61,58.07v-1.37h1.46v1.37h-1.46ZM245.79,68.98v-8.63h1.09v8.63h-1.09Z"/>
    <path fill="#231f20" d="M253,69.13c-.96,0-1.68-.26-2.16-.78-.48-.52-.72-1.27-.72-2.24v-4.88h-1.71v-.87h1.71v-2.67h1.09v2.67h2.79v.87h-2.79v4.74c0,.72.15,1.28.45,1.66s.79.57,1.48.57c.2,0,.4-.03.59-.08.19-.05.36-.1.5-.15l.21.85c-.13.08-.34.16-.62.22-.29.06-.55.1-.8.1Z"/>
    <path fill="#231f20" d="M261.08,68.98v-.96h2.88v-10.63h.62l-2.92,1.91-.5-.84,3.1-2.03h.78v11.59h2.71v.96h-6.68Z"/>
    <path fill="#231f20" d="M273.95,69.13c-.42,0-.84-.06-1.27-.19-.43-.12-.84-.3-1.22-.54-.38-.24-.71-.51-.98-.82l.44-.89c.44.49.92.85,1.44,1.09.52.24,1.06.36,1.6.36.62,0,1.16-.12,1.64-.35s.88-.58,1.2-1.04.57-1.04.74-1.75c.17-.7.25-1.51.25-2.42v-1.8h.12c-.06.7-.26,1.31-.59,1.83s-.76.92-1.29,1.2c-.53.28-1.12.42-1.79.42-.75,0-1.41-.17-1.98-.5-.58-.33-1.03-.8-1.35-1.4-.33-.6-.49-1.28-.49-2.04s.17-1.48.51-2.08c.34-.61.8-1.08,1.39-1.42.59-.34,1.26-.51,2.02-.51.97,0,1.8.24,2.47.71.68.47,1.19,1.17,1.54,2.07.35.91.53,2,.53,3.28,0,1.45-.2,2.68-.59,3.69s-.96,1.77-1.69,2.3c-.74.52-1.62.78-2.65.78ZM274.45,63.25c.57,0,1.07-.13,1.5-.38.43-.25.77-.61,1.02-1.06.25-.45.37-.97.37-1.55s-.12-1.12-.37-1.57c-.25-.45-.59-.8-1.02-1.06-.43-.25-.94-.38-1.52-.38s-1.07.13-1.5.38c-.43.26-.77.61-1.02,1.06s-.37.97-.37,1.57.12,1.1.37,1.55c.25.45.59.8,1.02,1.06s.94.38,1.52.38Z"/>
    <path fill="#231f20" d="M284.63,69.13c-.42,0-.84-.06-1.27-.19-.43-.12-.84-.3-1.22-.54-.38-.24-.71-.51-.98-.82l.44-.89c.44.49.92.85,1.44,1.09.52.24,1.06.36,1.6.36.62,0,1.16-.12,1.64-.35s.88-.58,1.2-1.04.57-1.04.74-1.75c.17-.7.25-1.51.25-2.42v-1.8h.12c-.06.7-.26,1.31-.59,1.83s-.76.92-1.29,1.2c-.53.28-1.12.42-1.79.42-.75,0-1.41-.17-1.98-.5-.58-.33-1.03-.8-1.35-1.4-.33-.6-.49-1.28-.49-2.04s.17-1.48.51-2.08c.34-.61.8-1.08,1.39-1.42.59-.34,1.26-.51,2.02-.51.97,0,1.8.24,2.47.71.68.47,1.19,1.17,1.54,2.07.35.91.53,2,.53,3.28,0,1.45-.2,2.68-.59,3.69s-.96,1.77-1.69,2.3c-.74.52-1.62.78-2.65.78ZM285.13,63.25c.57,0,1.07-.13,1.5-.38.43-.25.77-.61,1.02-1.06.25-.45.37-.97.37-1.55s-.12-1.12-.37-1.57c-.25-.45-.59-.8-1.02-1.06-.43-.25-.94-.38-1.52-.38s-1.07.13-1.5.38c-.43.26-.77.61-1.02,1.06s-.37.97-.37,1.57.12,1.1.37,1.55c.25.45.59.8,1.02,1.06s.94.38,1.52.38Z"/>
    <path fill="#231f20" d="M292.47,68.98v-.82l4.4-4.79c.43-.46.77-.9,1.03-1.31.26-.41.46-.81.59-1.21.13-.4.2-.8.2-1.2,0-.77-.23-1.36-.69-1.76s-1.14-.61-2.03-.61c-.68,0-1.3.12-1.87.37-.57.25-1.1.62-1.58,1.12l-.46-.89c.45-.47,1.03-.86,1.74-1.16.71-.3,1.45-.45,2.23-.45s1.49.13,2.06.38.99.63,1.29,1.13c.3.5.44,1.1.44,1.8,0,.38-.05.75-.14,1.12-.1.37-.24.73-.42,1.09-.18.36-.42.74-.69,1.12s-.61.78-.99,1.18l-3.99,4.24v-.34h6.75v.96h-7.85Z"/>
  </g>
</svg>