<?xml version="1.0" encoding="UTF-8"?>
<svg id="Layer_1" data-name="Layer 1" xmlns="http://www.w3.org/2000/svg" viewBox="0 0 230.2 196.15">
  <g>
    <path fill="#faf2e8" d="M114.7.01C93.77.01,76.74,16.51,76.74,36.79v95.29h75.92V36.79C152.65,16.51,135.63.01,114.7.01ZM96.8,119.71c-.58.27-1.22.44-1.89.45-1.63-.05-3.1-.92-3.86-2.32-.33-.61-.96-.99-1.65-.99h0c-.68,0-1.32.38-1.65.99-.78,1.44-2.32,2.34-4.02,2.34-.23,0-.46-.02-.68-.05-1.11-.16-2.11-.71-2.81-1.52v-4.84c.93.44,1.94.71,3,.77,2.25.14,4.45-.68,6.04-2.16,1.47,1.36,3.44,2.17,5.52,2.17.04,0,.07,0,.1,0,.03,0,.06,0,.09,0h.04c.18,0,.35-.03.53-.04.01,0,.03,0,.04,0,.49-.04.97-.13,1.44-.25l-.25,5.45ZM97.22,110.38c-.68.41-1.48.65-2.32.67-1.63-.04-3.1-.92-3.86-2.32-.33-.61-.96-.99-1.65-.99s-1.32.38-1.65.99c-.83,1.52-2.53,2.45-4.3,2.33-1.27-.08-2.42-.65-3.2-1.56v-4.83c.4.19.82.35,1.25.47.73.21,1.48.31,2.24.31,2.1,0,4.08-.8,5.55-2.17,1.47,1.36,3.44,2.17,5.52,2.17.04,0,.07,0,.1,0,.03,0,.06,0,.09,0h.04c.18,0,.35-.03.53-.04.01,0,.03,0,.04,0,.64-.05,1.26-.17,1.86-.36l-.24,5.33ZM80.24,128.58v-5.71c.72.34,1.49.59,2.3.71.39.06.79.09,1.19.09,2.11,0,4.08-.8,5.55-2.17,1.47,1.36,3.44,2.17,5.52,2.17.04,0,.07,0,.11,0,.03,0,.06,0,.09,0h.04c.18,0,.35-.03.53-.04.01,0,.03,0,.04,0,.35-.02.69-.07,1.02-.14l-.23,5.09h-16.16ZM99.91,128.36l2.1-46.34h24.63l1.12,24.64c-2.62,2.41-5.06,5.44-7.02,9.29-2.65,5.21-3.64,8.85-4.09,12.4h-16.74ZM149.15,128.58h-4.86c.02-1.65.23-3.97.7-5.85.45-1.83,1.19-3.71,2.15-5.45.59-1.07,1.27-2.09,2.02-3.05v14.35ZM149.15,109.05c-2.03,1.92-3.75,4.12-5.08,6.54-1.1,2-1.96,4.18-2.48,6.3-.59,2.41-.77,5.07-.8,6.69h-8.32c.32-3.01,1.23-6.83,3.49-10.68,3.8-6.47,9.55-9.76,13.18-11.29v2.44ZM149.15,102.85c-3.86,1.42-11.39,5.09-16.2,13.28-2.21,3.76-3.56,8.03-3.98,12.46h-8.81c.42-3.13,1.32-6.39,3.69-11.04,6.44-12.65,18.42-15.47,24.18-16.83.41-.1.78-.19,1.12-.27v2.4ZM149.15,96.82c-.45.14-1.13.3-1.92.49-3.54.83-9.98,2.36-16.09,6.64l-1.02-22.51h4.62c.74,0,1.36-.5,1.5-1.21.14-.7-.23-1.38-.89-1.66-3.12-1.32-6.17-3.39-9.09-6.14,3.14-2.6,4.92-6.24,4.92-10.13,0-4.99-5.3-10.89-9.56-15.63-1.15-1.28-2.24-2.49-3.07-3.52l-.29-4.17c1.06-.91,1.67-2.19,1.67-3.55,0-1.58-.82-3.03-2.19-3.93l-.14-2.09c.59-.64.91-1.45.91-2.3,0-1.04-.47-1.99-1.29-2.66l-.96-7.97c-.09-.78-.27-2.24-1.51-2.24-1.24,0-1.42,1.46-1.51,2.24l-.96,7.97c-.82.67-1.29,1.62-1.29,2.66,0,.85.33,1.66.91,2.3l-.14,2.09c-1.37.9-2.19,2.35-2.19,3.93,0,1.36.61,2.64,1.67,3.55l-.29,4.17c-.83,1.03-1.92,2.24-3.07,3.52-4.26,4.74-9.56,10.64-9.56,15.63,0,3.78,1.7,7.36,4.69,9.94-2.97,2.84-6.08,4.96-9.26,6.32-.67.28-1.03.97-.89,1.67.15.71.77,1.21,1.51,1.21h4.17l-.88,19.53c-.76.59-1.72.94-2.74.97-1.63-.04-3.1-.92-3.86-2.32-.33-.61-.96-.99-1.65-.99s-1.32.38-1.65.99c-.78,1.44-2.32,2.34-4.02,2.34-.43,0-.87-.06-1.28-.18-.88-.25-1.63-.75-2.2-1.41v-63.56c0-18.35,15.46-33.28,34.46-33.28s34.46,14.93,34.46,33.28v60.03Z"/>
    <path fill="#faf2e8" d="M121.12,93.64c0-4.79-2.89-8.55-6.57-8.55s-6.57,3.75-6.57,8.55v7.77h13.14v-7.77ZM117.62,97.91h-6.14v-4.27c0-2.97,1.62-5.05,3.07-5.05s3.07,2.07,3.07,5.05v4.27Z"/>
  </g>
  <g>
    <path fill="#faf2e8" d="M1.01,170.54c-.25,0-.45-.09-.62-.26-.17-.17-.26-.38-.26-.62v-23.98c0-.24.09-.45.26-.62.17-.17.38-.26.62-.26h3.42c.25,0,.45.09.62.26.17.17.26.38.26.62v20.48h11.66c.27,0,.49.09.66.26.17.17.26.39.26.66v2.57c0,.25-.09.46-.26.62-.17.17-.39.26-.66.26H1.01Z"/>
    <path fill="#faf2e8" d="M21.27,170.54c-.2,0-.37-.07-.53-.22-.16-.15-.24-.33-.24-.55,0-.1.02-.21.07-.33l8.86-23.72c.07-.24.21-.46.42-.64.21-.19.5-.28.86-.28h4.01c.37,0,.65.09.85.28.2.18.34.4.44.64l8.86,23.72c.02.12.04.23.04.33,0,.22-.07.4-.22.55-.15.15-.32.22-.51.22h-3.2c-.34,0-.59-.08-.75-.24-.16-.16-.26-.31-.31-.46l-1.73-4.49h-10.92l-1.73,4.49c-.05.15-.15.3-.31.46s-.41.24-.75.24h-3.2ZM28.55,161.13h8.35l-4.19-11.36-4.16,11.36Z"/>
    <path fill="#faf2e8" d="M49.15,170.54c-.25,0-.45-.09-.62-.26-.17-.17-.26-.38-.26-.62v-23.94c0-.27.09-.49.26-.66.17-.17.38-.26.62-.26h2.83c.34,0,.59.08.75.24.16.16.26.28.31.35l10.59,16.47v-16.14c0-.27.08-.49.24-.66.16-.17.37-.26.64-.26h3.09c.27,0,.49.09.66.26.17.17.26.39.26.66v23.9c0,.27-.09.49-.26.66-.17.17-.38.26-.62.26h-2.87c-.34,0-.59-.09-.74-.26-.15-.17-.26-.28-.33-.33l-10.55-16.11v15.81c0,.25-.09.46-.26.62-.17.17-.39.26-.66.26h-3.09Z"/>
    <path fill="#faf2e8" d="M83.16,170.91c-2.26,0-4.17-.39-5.75-1.18-1.58-.79-2.81-1.92-3.68-3.4-.87-1.48-1.34-3.25-1.42-5.31-.02-1.05-.04-2.19-.04-3.4s.01-2.36.04-3.44c.07-2.04.54-3.78,1.42-5.22.87-1.45,2.11-2.56,3.71-3.35s3.51-1.18,5.72-1.18c1.79,0,3.36.24,4.71.72,1.35.48,2.47,1.09,3.36,1.84.9.75,1.57,1.55,2.02,2.41.45.86.69,1.65.72,2.39.02.22-.04.4-.18.55-.15.15-.34.22-.59.22h-3.79c-.25,0-.43-.05-.55-.15-.12-.1-.23-.24-.33-.44-.2-.52-.5-1.02-.92-1.53-.42-.5-.98-.93-1.69-1.27s-1.63-.52-2.76-.52c-1.67,0-3,.44-3.99,1.32s-1.53,2.34-1.6,4.38c-.07,2.13-.07,4.29,0,6.47.07,2.08.62,3.58,1.64,4.49,1.02.91,2.36,1.36,4.03,1.36,1.1,0,2.09-.2,2.96-.59s1.56-1.01,2.06-1.84c.5-.83.75-1.9.75-3.2v-1.14h-4.49c-.25,0-.45-.09-.62-.26-.17-.17-.26-.39-.26-.66v-1.95c0-.27.09-.49.26-.66.17-.17.38-.26.62-.26h8.79c.27,0,.48.09.64.26.16.17.24.39.24.66v3.86c0,2.06-.45,3.84-1.34,5.33-.89,1.5-2.17,2.65-3.82,3.46-1.65.81-3.61,1.21-5.87,1.21Z"/>
    <path fill="#faf2e8" d="M98.68,170.54c-.25,0-.45-.09-.62-.26-.17-.17-.26-.38-.26-.62v-23.94c0-.27.09-.49.26-.66.17-.17.38-.26.62-.26h15.96c.27,0,.49.09.66.26.17.17.26.39.26.66v2.57c0,.27-.09.48-.26.64-.17.16-.39.24-.66.24h-11.8v6.99h11.07c.27,0,.49.09.66.26.17.17.26.39.26.66v2.57c0,.25-.09.45-.26.62-.17.17-.39.26-.66.26h-11.07v9.12c0,.25-.09.46-.26.62-.17.17-.39.26-.66.26h-3.24Z"/>
    <path fill="#faf2e8" d="M119.68,170.54c-.25,0-.45-.09-.62-.26-.17-.17-.26-.38-.26-.62v-23.94c0-.27.09-.49.26-.66.17-.17.38-.26.62-.26h16.18c.27,0,.49.09.66.26.17.17.26.39.26.66v2.43c0,.24-.09.45-.26.62-.17.17-.39.26-.66.26h-12.1v6.51h11.29c.27,0,.49.08.66.24.17.16.26.37.26.64v2.28c0,.27-.09.48-.26.64-.17.16-.39.24-.66.24h-11.29v6.73h12.39c.27,0,.49.09.66.26.17.17.26.39.26.66v2.43c0,.25-.09.46-.26.62-.17.17-.39.26-.66.26h-16.47Z"/>
    <path fill="#faf2e8" d="M142.18,170.54c-.25,0-.45-.09-.62-.26-.17-.17-.26-.38-.26-.62v-23.98c0-.24.09-.45.26-.62.17-.17.38-.26.62-.26h3.42c.25,0,.45.09.62.26.17.17.26.38.26.62v20.48h11.66c.27,0,.49.09.66.26.17.17.26.39.26.66v2.57c0,.25-.09.46-.26.62-.17.17-.39.26-.66.26h-15.96Z"/>
    <path fill="#faf2e8" d="M163.15,170.54c-.25,0-.45-.09-.62-.26-.17-.17-.26-.38-.26-.62v-23.94c0-.27.09-.49.26-.66.17-.17.38-.26.62-.26h8.97c2.48,0,4.52.38,6.12,1.14,1.61.76,2.82,1.89,3.64,3.38.82,1.5,1.24,3.32,1.27,5.48.05,1.08.07,2.04.07,2.87s-.03,1.78-.07,2.83c-.05,2.28-.47,4.16-1.25,5.64-.79,1.48-1.97,2.59-3.55,3.31s-3.6,1.08-6.05,1.08h-9.16ZM167.37,166.31h4.74c1.37,0,2.49-.2,3.35-.59.86-.39,1.49-1.02,1.89-1.89.4-.87.62-2.02.64-3.44.02-.74.04-1.38.06-1.93.01-.55.01-1.1,0-1.65-.01-.55-.03-1.18-.06-1.89-.05-2.01-.55-3.49-1.51-4.45s-2.48-1.43-4.56-1.43h-4.56v17.28Z"/>
    <path fill="#faf2e8" d="M187.89,170.54c-.25,0-.45-.09-.62-.26-.17-.17-.26-.38-.26-.62v-23.94c0-.27.09-.49.26-.66.17-.17.38-.26.62-.26h16.18c.27,0,.49.09.66.26.17.17.26.39.26.66v2.43c0,.24-.09.45-.26.62-.17.17-.39.26-.66.26h-12.1v6.51h11.29c.27,0,.49.08.66.24.17.16.26.37.26.64v2.28c0,.27-.09.48-.26.64-.17.16-.39.24-.66.24h-11.29v6.73h12.39c.27,0,.49.09.66.26.17.17.26.39.26.66v2.43c0,.25-.09.46-.26.62-.17.17-.39.26-.66.26h-16.47Z"/>
    <path fill="#faf2e8" d="M210.4,170.54c-.25,0-.45-.09-.62-.26-.17-.17-.26-.38-.26-.62v-23.94c0-.27.09-.49.26-.66.17-.17.38-.26.62-.26h9.52c2.97,0,5.31.69,7.02,2.06s2.57,3.37,2.57,5.99c0,1.81-.45,3.32-1.34,4.52-.9,1.2-2.09,2.07-3.59,2.61l5.37,9.38c.07.15.11.28.11.4,0,.22-.08.4-.24.55-.16.15-.34.22-.53.22h-3.35c-.42,0-.74-.11-.96-.33s-.39-.44-.52-.66l-4.74-8.71h-5.11v8.82c0,.25-.08.46-.24.62-.16.17-.37.26-.64.26h-3.35ZM214.63,156.68h5.19c1.5,0,2.61-.34,3.35-1.01.74-.67,1.1-1.62,1.1-2.85s-.36-2.19-1.08-2.89c-.72-.7-1.85-1.05-3.37-1.05h-5.19v7.8Z"/>
  </g>
  <g>
    <path fill="#faf2e8" d="M50.78,130.02c-.27,0-.54-.03-.8-.08-.26-.05-.5-.13-.73-.24-.22-.11-.42-.23-.57-.39l.25-.51c.19.15.39.28.59.37.2.09.42.17.63.21.22.05.43.07.65.07.46,0,.81-.09,1.06-.26.24-.17.36-.41.36-.71,0-.24-.08-.43-.23-.56s-.41-.24-.76-.32l-.99-.23c-.48-.11-.83-.28-1.06-.52-.23-.24-.34-.55-.34-.93,0-.33.08-.61.26-.85.17-.24.41-.43.73-.56.31-.13.68-.2,1.09-.2.25,0,.49.03.73.08.23.06.45.14.65.24.2.11.37.24.51.4l-.27.51c-.14-.14-.31-.27-.48-.36s-.36-.17-.55-.22c-.19-.05-.39-.07-.59-.07-.44,0-.78.09-1.02.27-.24.18-.36.43-.36.74,0,.23.07.42.22.57.15.14.38.25.7.33l.99.23c.49.11.86.28,1.1.51.24.22.36.53.36.9,0,.33-.09.61-.26.85-.17.24-.42.42-.74.55s-.69.19-1.12.19Z"/>
    <path fill="#faf2e8" d="M56.82,130.02c-.57,0-1.06-.11-1.47-.34s-.72-.55-.94-.98c-.22-.42-.33-.93-.33-1.51s.11-1.08.33-1.51c.22-.43.52-.76.92-1.01.39-.24.84-.36,1.35-.36s.91.11,1.26.32c.34.22.61.52.8.92.19.4.28.88.28,1.44v.32h-4.42v-.51h3.99l-.18.15c0-.65-.14-1.16-.43-1.53-.29-.37-.71-.55-1.27-.55-.42,0-.77.1-1.06.29s-.5.46-.65.8c-.14.34-.22.73-.22,1.17v.06c0,.48.08.9.23,1.23.16.34.39.59.7.77.31.17.68.26,1.1.26.34,0,.66-.05.96-.16.3-.11.59-.28.88-.53l.27.52c-.24.23-.55.41-.93.55-.38.14-.77.2-1.16.2Z"/>
    <path fill="#faf2e8" d="M60.3,122.96v-.88h.93v.88h-.93ZM60.41,129.93v-5.51h.69v5.51h-.69Z"/>
    <path fill="#faf2e8" d="M65.01,130.02c-.61,0-1.07-.17-1.38-.5-.31-.33-.46-.81-.46-1.43v-3.12h-1.09v-.56h1.09v-1.71h.69v1.71h1.79v.56h-1.79v3.02c0,.46.09.81.28,1.06.19.24.5.36.94.36.13,0,.25-.02.38-.05.12-.03.23-.07.32-.1l.14.55c-.08.05-.22.1-.4.14-.18.04-.35.06-.51.06Z"/>
  </g>
  <g>
    <path fill="#faf2e8" d="M162.33,129.99v-.5h1.5v-5.54h.33l-1.52.99-.26-.44,1.62-1.06h.41v6.04h1.41v.5h-3.48Z"/>
    <path fill="#faf2e8" d="M169.04,130.06c-.22,0-.44-.03-.66-.1-.23-.06-.44-.16-.64-.28-.2-.12-.37-.27-.51-.43l.23-.46c.23.25.48.44.75.57.27.12.55.19.83.19.32,0,.61-.06.85-.18.25-.12.46-.3.63-.54s.3-.54.38-.91c.09-.37.13-.79.13-1.26v-.94h.06c-.03.37-.13.68-.31.96-.17.27-.4.48-.67.63s-.59.22-.93.22c-.39,0-.74-.09-1.04-.26-.3-.17-.54-.42-.71-.73-.17-.31-.26-.67-.26-1.06s.09-.77.26-1.09c.18-.32.42-.56.72-.74s.66-.26,1.05-.26c.51,0,.94.12,1.29.37.35.25.62.61.8,1.08s.27,1.04.27,1.71c0,.76-.1,1.4-.31,1.92-.2.53-.5.93-.88,1.2s-.85.41-1.38.41ZM169.3,127c.3,0,.56-.07.79-.2.23-.13.4-.32.53-.55.13-.23.2-.5.2-.81s-.07-.58-.2-.82-.31-.42-.53-.55c-.23-.13-.49-.2-.79-.2s-.56.07-.79.2c-.23.13-.4.32-.53.55-.13.24-.2.51-.2.82s.06.57.2.81c.13.24.31.42.53.55.23.13.49.2.79.2Z"/>
    <path fill="#faf2e8" d="M174.62,130.06c-.22,0-.44-.03-.66-.1-.23-.06-.44-.16-.64-.28-.2-.12-.37-.27-.51-.43l.23-.46c.23.25.48.44.75.57.27.12.55.19.83.19.32,0,.61-.06.85-.18.25-.12.46-.3.63-.54s.3-.54.38-.91c.09-.37.13-.79.13-1.26v-.94h.06c-.03.37-.13.68-.31.96-.17.27-.4.48-.67.63s-.59.22-.93.22c-.39,0-.74-.09-1.04-.26-.3-.17-.54-.42-.71-.73-.17-.31-.26-.67-.26-1.06s.09-.77.26-1.09c.18-.32.42-.56.72-.74s.66-.26,1.05-.26c.51,0,.94.12,1.29.37.35.25.62.61.8,1.08s.27,1.04.27,1.71c0,.76-.1,1.4-.31,1.92-.2.53-.5.93-.88,1.2s-.85.41-1.38.41ZM174.88,127c.3,0,.56-.07.79-.2.23-.13.4-.32.53-.55.13-.23.2-.5.2-.81s-.07-.58-.2-.82-.31-.42-.53-.55c-.23-.13-.49-.2-.79-.2s-.56.07-.79.2c-.23.13-.4.32-.53.55-.13.24-.2.51-.2.82s.06.57.2.81c.13.24.31.42.53.55.23.13.49.2.79.2Z"/>
    <path fill="#faf2e8" d="M178.7,129.99v-.43l2.29-2.5c.22-.24.4-.47.54-.68.14-.21.24-.42.31-.63.07-.21.1-.42.1-.63,0-.4-.12-.71-.36-.92-.24-.21-.59-.32-1.06-.32-.35,0-.68.07-.97.2s-.57.33-.83.58l-.24-.46c.23-.25.54-.45.91-.6.37-.16.76-.23,1.17-.23s.78.07,1.07.2c.29.13.52.33.67.59.16.26.23.57.23.94,0,.2-.03.39-.07.58-.05.19-.12.38-.22.57-.1.19-.22.38-.36.58-.15.2-.32.41-.52.62l-2.08,2.21v-.18h3.52v.5h-4.09Z"/>
  </g>
  <g>
    <path fill="#faf2e8" d="M55.41,195.99v-12.55h4.79c1.28,0,2.28.28,2.98.85.71.57,1.06,1.38,1.06,2.44,0,.78-.23,1.44-.7,1.96s-1.1.87-1.9,1.03v-.25c.59.06,1.11.22,1.54.49.43.27.77.62,1,1.05.23.43.35.95.35,1.56,0,.74-.16,1.36-.48,1.87-.32.51-.79.9-1.4,1.16s-1.35.39-2.22.39h-5.02ZM56.48,189.17h3.6c1,0,1.76-.21,2.28-.61.52-.41.78-1.01.78-1.79s-.26-1.38-.78-1.79c-.52-.41-1.28-.61-2.28-.61h-3.6v4.81ZM56.48,195.07h3.86c.41,0,.79-.03,1.11-.1s.61-.16.86-.29c.24-.13.45-.29.61-.49.17-.2.29-.43.38-.69.08-.27.12-.57.12-.9s-.04-.65-.12-.92c-.08-.27-.21-.5-.38-.69-.17-.2-.37-.36-.61-.49-.24-.13-.53-.23-.86-.29s-.7-.1-1.11-.1h-3.86v4.97Z"/>
    <path fill="#faf2e8" d="M67.36,195.99v-12.55h1.09v12.55h-1.09Z"/>
    <path fill="#faf2e8" d="M76.83,196.13c-.86,0-1.63-.15-2.32-.45-.69-.3-1.29-.72-1.77-1.28-.49-.56-.86-1.23-1.12-2.02-.26-.79-.39-1.68-.39-2.68s.13-1.89.38-2.68c.25-.79.62-1.46,1.11-2.01s1.08-.98,1.77-1.27c.7-.3,1.47-.45,2.34-.45s1.65.15,2.34.44c.7.29,1.29.71,1.78,1.27s.87,1.23,1.12,2.02c.26.79.38,1.68.38,2.66s-.13,1.89-.39,2.69c-.26.8-.63,1.47-1.12,2.03-.49.56-1.08.98-1.77,1.28-.69.3-1.47.45-2.34.45ZM76.83,195.14c.95,0,1.76-.21,2.42-.64.66-.43,1.17-1.04,1.52-1.85.35-.81.53-1.79.53-2.94s-.18-2.13-.53-2.93-.86-1.42-1.51-1.84c-.66-.43-1.47-.64-2.43-.64s-1.74.21-2.4.64c-.66.43-1.17,1.04-1.52,1.85-.35.81-.53,1.78-.53,2.92s.18,2.11.53,2.92c.35.81.86,1.43,1.52,1.86.67.43,1.47.65,2.4.65Z"/>
    <path fill="#faf2e8" d="M89.7,195.99v-12.55h7.73v.94h-6.66v4.77h6.29v.94h-6.29v4.95h6.66v.94h-7.73Z"/>
    <path fill="#faf2e8" d="M99.96,195.99v-12.55h4.74c1.33,0,2.35.31,3.06.93.71.62,1.07,1.5,1.07,2.63,0,.74-.16,1.37-.48,1.9-.32.53-.79.93-1.42,1.2s-1.37.41-2.23.41l.2-.23h.25c.45,0,.85.12,1.18.36s.64.62.92,1.16l2.28,4.2h-1.19l-2.17-4.02c-.2-.38-.42-.67-.65-.87-.23-.2-.5-.34-.81-.42s-.68-.12-1.1-.12h-2.55v5.43h-1.09ZM101.04,189.64h3.51c1.06,0,1.85-.22,2.38-.67.53-.45.79-1.1.79-1.97s-.26-1.5-.79-1.95c-.53-.45-1.32-.67-2.38-.67h-3.51v5.25Z"/>
    <path fill="#faf2e8" d="M111.72,195.99v-12.55h4.04c1.34,0,2.47.24,3.4.71s1.63,1.18,2.12,2.11.73,2.08.73,3.45-.24,2.51-.73,3.44c-.49.93-1.19,1.64-2.12,2.12-.93.48-2.06.72-3.4.72h-4.04ZM112.81,195.03h2.87c1.72,0,3.01-.45,3.87-1.34.86-.89,1.29-2.22,1.29-3.99s-.43-3.09-1.29-3.98c-.86-.88-2.15-1.33-3.87-1.33h-2.87v10.63Z"/>
    <path fill="#faf2e8" d="M122.71,195.99l5.47-12.55h.98l5.45,12.55h-1.14l-1.55-3.61.59.27h-7.71l.61-.27-1.53,3.61h-1.16ZM128.64,184.79l-3.03,7.12-.41-.21h6.89l-.37.21-3.04-7.12h-.04ZM126.54,181.52v-1.3h1.3v1.3h-1.3ZM129.51,181.52v-1.3h1.3v1.3h-1.3Z"/>
    <path fill="#faf2e8" d="M136.72,195.99v-12.55h4.74c.89,0,1.64.14,2.26.43.62.29,1.08.7,1.4,1.26.31.55.47,1.23.47,2.02s-.16,1.45-.47,2c-.31.55-.78.97-1.4,1.26-.62.29-1.37.44-2.26.44h-3.65v5.15h-1.09ZM137.8,189.89h3.56c1.03,0,1.81-.23,2.33-.69.52-.46.78-1.15.78-2.05s-.26-1.59-.78-2.06c-.52-.47-1.3-.7-2.33-.7h-3.56v5.5Z"/>
    <path fill="#faf2e8" d="M147.83,195.99v-12.55h7.55v.94h-6.46v4.79h6.11v.94h-6.11v5.88h-1.09Z"/>
    <path fill="#faf2e8" d="M157.47,195.99v-12.55h7.73v.94h-6.66v4.77h6.29v.94h-6.29v4.95h6.66v.94h-7.73Z"/>
    <path fill="#faf2e8" d="M167.73,195.99v-12.55h1.09v11.57h6.55v.98h-7.64Z"/>
  </g>
</svg>